<?xml version="1.0" standalone="no"?>
<!DOCTYPE svg PUBLIC "-//W3C//DTD SVG 20010904//EN"
 "http://www.w3.org/TR/2001/REC-SVG-20010904/DTD/svg10.dtd">
<svg version="1.0" xmlns="http://www.w3.org/2000/svg"
 width="7467.000000pt" height="7200.000000pt" viewBox="0 0 7467.000000 7200.000000"
 preserveAspectRatio="xMidYMid meet">

<g transform="translate(0.000000,7200.000000) scale(0.100000,-0.100000)"
fill="#000000" stroke="none">
<path d="M31810 65741 c-80 -16 -233 -49 -340 -74 -238 -56 -960 -219 -1240
-281 -306 -68 -540 -113 -680 -132 -169 -22 -167 -22 -188 -45 -21 -22 -38
-24 -95 -14 -27 6 -53 2 -95 -13 -159 -58 -611 -122 -1107 -157 -545 -38 -727
-74 -831 -168 -52 -46 -76 -57 -224 -105 -175 -57 -416 -116 -616 -151 -196
-35 -240 -49 -310 -97 -79 -54 -164 -56 -164 -4 0 31 -17 33 -57 5 -53 -36
-143 -62 -259 -74 -269 -30 -504 -82 -609 -137 -39 -20 -96 -40 -130 -45 -43
-7 -111 -35 -240 -98 -99 -49 -235 -110 -303 -135 -143 -54 -336 -106 -393
-106 -53 0 -95 -19 -152 -68 -26 -23 -65 -46 -86 -52 -21 -5 -56 -23 -78 -39
-85 -61 -161 -84 -401 -121 -262 -40 -352 -65 -502 -140 -156 -78 -313 -128
-468 -149 -84 -11 -103 -24 -138 -93 -28 -55 -54 -77 -148 -123 -44 -22 -103
-64 -157 -113 -137 -123 -160 -133 -809 -337 -332 -105 -595 -201 -712 -262
-53 -27 -117 -72 -165 -114 -145 -130 -371 -291 -466 -334 -31 -13 -74 -45
-103 -75 -66 -70 -143 -119 -310 -201 -230 -112 -383 -224 -479 -351 -60 -79
-89 -142 -111 -238 -19 -86 -47 -143 -105 -215 -61 -76 -215 -398 -333 -695
-105 -267 -156 -385 -261 -605 -91 -190 -122 -293 -95 -310 20 -12 9 -37 -35
-77 -25 -23 -45 -47 -45 -55 0 -8 10 -28 23 -44 20 -28 22 -41 21 -147 -1
-128 -24 -245 -69 -351 -37 -89 -34 -146 24 -373 27 -106 55 -230 61 -276 12
-78 11 -113 -6 -312 -6 -66 -3 -82 17 -125 19 -42 25 -82 37 -255 21 -297 21
-447 -1 -487 -49 -92 -87 -578 -87 -1129 0 -201 4 -322 11 -343 12 -33 35 -51
68 -51 31 0 34 -16 14 -68 -16 -43 -18 -85 -18 -507 1 -621 32 -1049 86 -1187
34 -88 48 -350 29 -537 -8 -76 -15 -99 -35 -123 -17 -20 -25 -42 -25 -68 0
-62 -20 -136 -41 -156 -24 -21 -53 -120 -73 -244 -8 -52 -27 -136 -42 -185
-39 -132 -43 -153 -59 -298 -36 -327 -63 -928 -71 -1562 -7 -487 2 -754 31
-922 19 -114 42 -367 55 -613 24 -448 32 -566 51 -775 11 -121 34 -312 50
-425 19 -122 33 -266 36 -355 5 -136 3 -164 -23 -300 -20 -102 -29 -182 -29
-250 0 -92 3 -105 31 -160 16 -33 65 -106 107 -163 47 -63 83 -123 93 -155 13
-42 18 -123 24 -421 11 -474 13 -491 81 -631 61 -126 64 -170 64 -925 -1 -696
-10 -921 -45 -1051 -28 -106 -25 -153 16 -276 44 -131 52 -216 33 -361 -7 -59
-12 -171 -12 -250 2 -143 2 -143 -23 -154 -30 -14 -31 -29 -3 -54 52 -47 64
-96 89 -363 21 -221 95 -603 145 -752 27 -78 32 -134 14 -145 -31 -19 15 -369
63 -487 17 -43 21 -76 24 -195 2 -113 6 -148 19 -168 27 -42 37 -300 33 -874
-3 -405 -7 -532 -17 -555 -10 -22 -14 -98 -16 -270 -1 -171 -7 -266 -18 -330
-21 -114 -22 -224 -2 -251 20 -27 18 -50 -6 -84 -16 -20 -20 -38 -17 -62 7
-47 -16 -117 -78 -238 -76 -147 -115 -197 -171 -221 -25 -11 -73 -42 -105 -69
-76 -64 -128 -94 -198 -115 -100 -31 -109 -35 -120 -70 -12 -36 -44 -63 -230
-188 -63 -43 -151 -105 -195 -137 -44 -33 -105 -69 -135 -80 -168 -64 -212
-95 -420 -287 -147 -136 -209 -177 -345 -228 -96 -37 -135 -58 -281 -154 -140
-93 -232 -143 -304 -163 -41 -12 -50 -21 -103 -100 -52 -81 -62 -90 -120 -117
-34 -15 -93 -56 -132 -90 -158 -138 -252 -200 -350 -231 -59 -19 -115 -54
-160 -101 -49 -52 -140 -112 -263 -173 -97 -49 -133 -80 -266 -229 -48 -55
-85 -86 -125 -107 -64 -32 -75 -43 -111 -109 -28 -52 -74 -82 -162 -107 -67
-19 -181 -84 -255 -146 -203 -168 -272 -219 -354 -262 -51 -27 -109 -64 -128
-81 -40 -36 -77 -56 -136 -75 -56 -18 -83 -46 -101 -107 -18 -61 -33 -73 -85
-66 -32 5 -40 2 -44 -13 -27 -86 -97 -176 -299 -382 -141 -145 -308 -269 -491
-367 -84 -44 -122 -78 -130 -116 -9 -40 -77 -130 -172 -225 -104 -105 -175
-161 -223 -175 -22 -7 -72 -39 -112 -72 -86 -70 -129 -91 -229 -112 -141 -29
-258 -110 -306 -211 -25 -53 -32 -59 -237 -234 -43 -36 -111 -105 -152 -153
-81 -94 -108 -111 -164 -102 -42 6 -55 -1 -79 -46 -11 -21 -35 -42 -64 -57
-98 -49 -252 -222 -264 -297 -4 -26 -14 -40 -33 -50 -32 -16 -70 -97 -96 -199
-15 -59 -26 -79 -71 -128 -74 -80 -80 -101 -48 -149 32 -49 31 -57 -2 -64 -79
-17 -85 -40 -84 -350 0 -261 -6 -310 -39 -340 -25 -23 -25 -51 0 -106 37 -83
20 -151 -41 -164 -53 -12 -105 -113 -154 -300 -25 -92 -73 -437 -82 -580 -6
-88 8 -141 81 -300 42 -93 46 -150 17 -216 -11 -24 -37 -103 -59 -174 -45
-149 -64 -192 -99 -221 l-25 -21 26 -61 c30 -72 32 -121 9 -206 -16 -53 -18
-107 -17 -436 1 -406 14 -572 55 -705 26 -83 27 -127 4 -162 -44 -66 10 -250
82 -279 28 -12 33 -21 44 -71 13 -66 17 -270 6 -325 -4 -21 -19 -50 -34 -65
-25 -27 -25 -31 -20 -123 8 -124 31 -244 69 -353 l30 -88 -25 -49 c-32 -62
-28 -78 49 -195 58 -87 59 -89 59 -159 -1 -39 -7 -123 -14 -186 -21 -186 -3
-611 34 -814 19 -98 19 -156 0 -180 -20 -26 -19 -42 6 -93 16 -32 24 -76 30
-166 12 -158 35 -329 60 -442 27 -124 25 -173 -7 -216 -20 -28 -24 -40 -18
-69 10 -53 6 -83 -21 -141 -43 -96 -69 -247 -69 -409 -1 -144 -1 -145 31 -206
53 -101 58 -150 57 -544 -1 -356 -16 -658 -36 -754 -20 -96 -19 -101 30 -104
52 -4 62 -21 33 -58 -31 -39 -26 -76 28 -231 75 -211 79 -273 40 -559 -11 -80
-10 -97 4 -142 23 -69 22 -77 -18 -161 -49 -102 -52 -132 -22 -227 39 -125 50
-216 44 -381 -3 -108 -12 -179 -31 -265 -33 -148 -33 -203 -2 -261 13 -25 26
-73 30 -108 8 -72 27 -109 56 -109 26 0 26 -22 0 -45 -33 -30 -53 -98 -48
-166 4 -58 7 -63 51 -104 l47 -43 0 -99 c0 -116 -43 -633 -66 -783 -8 -58 -28
-152 -44 -210 -52 -186 -69 -373 -50 -535 7 -55 14 -135 17 -178 5 -71 3 -80
-15 -93 -23 -16 -38 -87 -28 -130 l7 -27 29 28 c17 16 32 26 35 23 3 -3 0 -40
-6 -82 -11 -84 -6 -131 17 -140 20 -8 18 -44 -11 -141 -64 -222 -111 -831 -71
-927 41 -98 78 -454 80 -769 1 -198 -1 -218 -19 -253 l-20 -37 23 -39 c40 -71
23 -201 -44 -329 -29 -57 -36 -81 -44 -176 -26 -271 -31 -309 -50 -353 -25
-62 -37 -195 -51 -577 -13 -364 -7 -672 16 -799 9 -50 32 -131 52 -180 19 -50
51 -136 70 -190 82 -237 160 -333 348 -428 61 -31 147 -81 192 -111 126 -84
325 -147 616 -197 144 -24 233 -25 312 -4 147 40 273 53 600 63 339 10 556 0
618 -28 25 -12 77 -28 114 -35 82 -18 399 -50 693 -71 248 -18 414 -39 483
-61 44 -15 53 -15 100 0 84 26 142 34 496 71 522 54 620 66 701 87 85 21 122
18 189 -18 57 -30 70 -30 130 1 41 22 52 24 74 14 22 -10 32 -8 69 13 77 45
117 49 648 59 578 12 792 7 870 -18 50 -16 53 -16 65 1 22 29 75 35 395 46
304 10 364 16 430 47 69 32 355 28 483 -8 21 -5 53 -23 71 -40 31 -27 34 -28
39 -10 3 12 19 24 43 30 85 24 681 32 2269 28 l1620 -5 65 -22 c122 -41 245
-93 425 -177 179 -84 248 -108 400 -137 233 -46 600 -61 680 -29 63 25 162 27
298 4 153 -25 200 -29 472 -41 146 -6 240 -15 280 -26 48 -13 87 -15 195 -11
74 4 167 2 205 -4 147 -21 230 -22 281 -6 85 27 252 46 639 72 264 18 346 25
650 62 172 21 267 27 435 27 118 0 236 -3 262 -8 43 -8 54 -5 148 39 94 44
105 47 155 40 40 -5 61 -2 85 10 54 28 233 45 535 51 442 10 643 -11 794 -83
l73 -36 73 16 c162 36 553 43 960 18 217 -13 1655 -13 2600 0 910 12 1358 -1
1610 -46 159 -28 417 -45 1020 -65 282 -10 459 -19 1005 -51 118 -7 247 -8
355 -3 494 24 1540 -22 1726 -77 19 -5 156 -14 304 -19 149 -6 371 -15 495
-21 124 -6 380 -15 570 -19 343 -8 422 -15 481 -45 24 -13 74 -17 252 -19 253
-4 373 -18 822 -102 55 -10 202 -18 470 -24 459 -10 664 -28 768 -66 98 -35
137 -45 227 -54 139 -16 900 -15 978 0 48 10 65 10 76 1 22 -19 179 -30 406
-31 246 0 312 -9 346 -45 31 -33 49 -28 49 14 0 44 24 56 70 37 23 -10 41 -27
52 -50 20 -42 41 -51 86 -37 17 6 73 15 122 21 103 12 656 32 940 34 l190 1
70 -32 c69 -31 113 -41 270 -63 49 -7 104 -23 142 -41 64 -31 133 -43 412 -69
68 -6 167 -18 220 -26 290 -45 554 -66 1066 -84 269 -10 366 -15 710 -39 84
-6 163 -6 225 1 199 21 298 21 432 -1 207 -35 463 -44 758 -29 140 7 359 12
485 11 127 -2 903 -4 1725 -6 822 -2 1513 -7 1535 -11 22 -5 55 -17 74 -27 30
-18 42 -19 131 -9 54 5 297 16 541 25 586 19 832 33 900 51 98 24 249 35 447
32 176 -3 195 -5 207 -22 14 -18 16 -18 87 5 58 18 95 23 189 23 112 1 119 0
144 -24 26 -24 32 -25 186 -29 359 -8 1163 63 1523 133 152 30 220 56 294 110
72 53 105 102 100 151 -3 39 11 55 51 55 26 0 91 59 91 83 0 25 70 78 150 115
41 18 127 58 190 87 127 58 191 80 263 90 40 5 52 12 65 36 l17 30 73 -6 c81
-8 97 -1 107 46 9 40 83 111 168 161 40 23 102 72 139 109 68 69 68 69 172 83
59 8 72 26 79 107 3 39 9 74 12 77 4 4 20 -1 36 -11 50 -28 75 -22 136 35 72
68 167 187 199 249 27 55 52 74 107 83 30 6 41 14 54 41 11 22 40 49 90 81 93
60 178 150 223 238 45 87 82 120 125 112 40 -8 55 8 62 66 8 60 18 75 58 88
40 13 66 52 89 130 20 68 51 120 71 120 66 0 299 177 293 223 -2 15 3 23 17
25 33 6 52 30 59 72 4 25 20 55 47 86 45 52 68 99 94 192 22 77 46 100 120
112 85 14 125 59 70 80 -14 5 -25 12 -25 14 0 3 14 21 31 41 37 42 64 44 115
10 20 -14 40 -25 44 -25 20 0 35 39 41 101 7 76 27 109 65 109 29 0 64 44 64
80 0 22 9 33 43 53 23 14 93 71 155 126 195 173 264 220 357 241 133 30 423
290 680 610 72 91 160 191 194 223 42 39 64 67 68 90 13 66 165 194 507 426
289 196 371 269 400 359 35 102 164 225 269 256 60 17 119 72 156 144 26 51
77 102 102 102 24 0 89 32 189 94 94 59 259 123 373 147 103 21 145 43 250
136 168 146 260 205 389 250 59 21 84 24 131 19 53 -5 62 -3 100 23 55 38 228
217 295 306 55 73 99 157 128 239 9 28 28 60 41 72 17 15 23 32 23 62 0 52 47
122 176 262 151 164 194 240 215 382 5 40 5 202 -3 438 -12 409 -5 708 31
1240 46 670 38 832 -55 1116 -51 159 -82 295 -94 414 -12 126 -41 249 -109
465 -89 284 -129 467 -161 725 -27 217 -53 364 -96 535 -19 77 -41 195 -49
263 -13 111 -19 134 -64 232 -98 213 -148 421 -172 710 -6 77 -10 372 -10 690
1 607 -13 1204 -29 1321 -6 41 -20 91 -30 112 -23 44 -46 172 -55 307 -16 249
-46 437 -97 609 -21 73 -29 115 -25 144 4 25 -1 62 -14 101 -32 103 -34 147
-10 194 56 111 47 222 -24 302 l-44 50 1 87 c1 135 -61 360 -151 548 -27 55
-53 127 -60 160 -17 93 -48 321 -71 525 -41 358 -78 539 -139 665 -79 165
-115 291 -131 456 -7 68 -18 120 -36 162 -115 273 -198 606 -234 937 -15 138
-47 233 -120 360 -33 58 -71 139 -84 181 -52 160 -60 466 -17 565 12 26 20 48
19 49 -2 0 -15 6 -30 13 -20 8 -28 20 -33 49 -12 75 -21 98 -38 98 -9 0 -20 5
-25 10 -33 36 -71 259 -96 560 -19 227 -22 289 -46 850 -12 253 -27 530 -35
615 -8 85 -15 252 -15 370 -1 247 -9 329 -45 437 -36 107 -162 360 -231 463
-75 112 -101 142 -214 241 -52 46 -159 143 -238 216 -321 298 -530 383 -1056
433 -259 25 -383 44 -506 77 -83 22 -106 25 -187 19 l-92 -7 -148 67 c-169 76
-371 156 -523 207 -127 42 -209 78 -252 110 -47 34 -89 47 -202 57 -81 8 -112
16 -170 45 -194 95 -765 129 -2476 145 -531 6 -996 14 -1034 20 -121 17 -165
37 -234 106 -47 47 -73 85 -103 149 -22 48 -38 93 -35 101 3 8 19 14 36 14
127 0 172 127 101 288 -18 41 -39 104 -46 140 -27 132 -46 525 -60 1267 -20
1068 -49 1713 -81 1840 -22 85 -68 200 -135 343 -78 164 -115 272 -144 417
-17 81 -32 129 -47 150 l-23 30 1 875 c0 845 7 1187 40 2010 15 369 13 505 -8
559 -5 14 -27 44 -48 67 -22 24 -43 55 -47 71 -4 15 -7 143 -7 283 1 281 18
447 54 527 25 57 22 83 -22 185 -44 105 -58 153 -68 245 -5 46 -16 95 -24 110
-8 16 -20 39 -26 53 -15 33 -15 233 0 493 17 275 9 467 -34 842 -19 171 -44
425 -56 565 -46 569 -78 842 -150 1275 -52 314 -77 513 -89 715 -11 181 -31
277 -81 386 -79 175 -111 443 -140 1194 -22 564 -48 963 -80 1220 -11 85 -29
263 -40 395 -33 393 -51 481 -119 590 -62 98 -87 155 -110 245 -69 283 -115
789 -104 1155 7 217 -2 303 -48 458 -62 208 -83 354 -99 677 -18 365 -47 648
-97 930 -35 205 -35 270 0 341 25 50 29 73 36 190 11 167 -2 477 -28 714 -32
288 -52 539 -97 1195 -10 159 -45 475 -70 645 -120 809 -379 1484 -797 2080
-183 261 -293 402 -386 496 -109 109 -160 140 -357 219 -73 29 -163 70 -200
91 -196 111 -355 167 -608 214 -147 27 -284 40 -562 55 -415 22 -878 99 -991
165 -37 22 -66 29 -182 40 -136 13 -162 20 -211 57 -19 15 -34 18 -65 13 -45
-6 -197 13 -350 45 -160 33 -348 50 -675 60 -322 10 -418 18 -620 50 -69 11
-197 27 -284 35 -91 9 -185 24 -217 36 -32 10 -61 19 -63 19 -3 0 -17 -12 -31
-27 l-25 -28 -67 19 c-120 33 -214 47 -384 55 -143 7 -172 11 -212 31 l-46 23
-110 -23 c-140 -29 -226 -25 -446 24 -278 61 -330 68 -419 61 -68 -6 -97 -3
-181 18 -148 38 -194 44 -495 72 -489 44 -739 75 -853 105 -90 23 -223 36
-592 55 -478 25 -666 42 -746 66 -19 5 -164 14 -324 19 -362 12 -527 25 -681
56 -67 13 -182 30 -255 39 -309 35 -398 48 -479 72 -144 43 -191 52 -316 63
-159 13 -230 36 -324 106 -87 65 -170 106 -330 165 -133 48 -195 77 -265 125
-39 27 -70 38 -140 50 -50 8 -157 30 -240 49 -241 54 -484 83 -1115 135 -549
45 -597 52 -665 99 -60 41 -69 42 -122 14 -58 -32 -127 -35 -358 -15 -114 10
-400 13 -1185 11 -1149 -2 -1216 0 -1785 56 -215 21 -402 19 -565 -6 -114 -18
-197 -22 -528 -26 -427 -6 -722 5 -1077 38 -166 16 -259 20 -380 16 -221 -8
-1330 21 -1695 44 -360 23 -452 21 -610 -10z m259 -1405 c149 -29 294 -36 966
-46 655 -10 967 -21 1066 -40 76 -15 207 -12 263 5 163 50 1168 57 1321 10 76
-24 332 -45 656 -54 271 -7 297 -10 335 -29 53 -27 129 -39 334 -52 197 -13
341 -33 393 -55 24 -10 50 -13 72 -9 22 4 62 -3 122 -20 107 -31 231 -50 463
-71 213 -19 349 -41 414 -67 28 -10 88 -24 135 -29 97 -12 151 -33 221 -84 70
-51 134 -77 219 -86 52 -6 94 -18 131 -37 30 -16 73 -33 95 -37 22 -4 339 -7
705 -6 628 1 778 -4 894 -28 111 -24 463 -54 902 -76 300 -15 426 -29 598 -65
130 -27 367 -54 711 -80 374 -28 543 -46 645 -72 111 -27 276 -36 480 -27 196
9 307 29 331 61 l17 21 27 -21 c46 -36 126 -60 575 -173 490 -124 636 -155
778 -169 55 -5 134 -20 176 -34 83 -27 215 -49 400 -66 156 -14 243 -34 300
-70 89 -57 150 -67 481 -80 420 -16 657 -56 833 -140 89 -43 112 -50 164 -50
107 0 336 -91 378 -150 15 -20 33 -30 76 -38 31 -7 88 -28 128 -48 139 -71
220 -88 512 -104 244 -14 316 -28 393 -75 43 -27 94 -45 201 -71 159 -39 235
-72 325 -141 82 -64 255 -215 255 -223 0 -13 -196 -198 -226 -213 -56 -29
-142 -38 -469 -53 -603 -26 -787 -58 -821 -141 -9 -20 -23 -34 -37 -37 -12 -3
-85 -17 -162 -33 -233 -47 -458 -37 -834 37 -272 53 -307 55 -881 55 -473 0
-543 -2 -600 -17 -36 -10 -130 -22 -210 -27 -371 -26 -1971 -53 -2415 -40
-278 8 -297 9 -447 41 -104 21 -187 21 -288 -2 -74 -16 -505 -7 -612 13 -42 8
-97 27 -122 42 -37 22 -68 29 -173 41 -71 7 -147 20 -170 29 -23 8 -113 22
-200 30 -194 20 -191 19 -283 64 -72 35 -79 36 -183 36 -104 0 -110 -1 -129
-25 -20 -24 -24 -25 -172 -28 -168 -4 -209 3 -401 62 -149 46 -352 81 -555 96
-188 13 -368 34 -515 60 -315 55 -988 78 -2600 90 -777 6 -1182 12 -1250 20
-59 7 -152 29 -225 52 -68 21 -161 44 -205 49 -116 14 -167 28 -192 51 -22 20
-25 21 -80 7 -81 -20 -486 -17 -708 5 -93 10 -249 33 -345 53 -138 28 -204 36
-310 38 -254 6 -731 87 -825 140 -72 41 -252 71 -615 100 -212 17 -392 44
-510 76 -359 96 -388 100 -890 105 -224 3 -425 9 -450 15 -25 6 -58 22 -73 37
-26 25 -35 27 -110 28 -73 0 -92 5 -179 42 -118 51 -140 52 -169 12 -38 -50
-95 -65 -244 -64 -222 2 -422 47 -705 159 -102 40 -220 82 -263 94 -43 12 -95
30 -115 40 -50 25 -149 39 -360 51 -195 11 -252 17 -298 31 -64 20 -158 29
-474 49 -349 22 -556 38 -880 70 -254 24 -329 36 -377 61 -49 25 -56 24 -95
-10 -59 -51 -110 -81 -140 -81 -17 0 -74 9 -127 20 -53 11 -153 24 -222 29
l-124 9 -48 52 c-51 56 -97 136 -97 170 0 31 78 110 135 136 28 13 73 29 101
35 43 10 56 9 87 -5 43 -21 62 -13 153 62 102 83 118 92 172 92 58 0 80 17 63
49 -6 11 -11 23 -11 26 0 4 44 3 98 0 l98 -7 54 46 c30 26 66 49 80 52 58 11
102 29 235 96 188 95 204 100 306 99 54 -1 102 4 129 14 55 19 133 19 200 -1
71 -21 109 -14 187 37 42 28 87 48 127 56 121 26 889 13 1065 -17 107 -19 186
-13 263 21 139 61 162 63 613 64 370 0 413 2 442 17 67 37 409 32 468 -6 17
-11 32 -12 65 -5 76 17 196 69 261 112 l64 42 110 -3 c71 -2 136 3 187 13 137
28 236 34 563 30 240 -3 341 -7 404 -19z m19036 -861 c212 -43 322 -74 393
-110 26 -14 77 -19 240 -26 196 -8 267 -17 567 -71 37 -7 143 -10 275 -7 118
2 298 4 400 4 219 -1 279 -15 400 -92 41 -26 120 -71 175 -99 82 -42 102 -56
109 -80 15 -50 22 -59 52 -59 87 0 -16 -163 -146 -230 -19 -10 -52 -17 -72
-17 -27 1 -38 -2 -38 -12 0 -28 -30 -44 -105 -55 -41 -6 -110 -24 -153 -41
-72 -28 -93 -39 -153 -82 -28 -19 -134 -35 -299 -43 -172 -9 -330 -25 -371
-37 -26 -7 -41 -20 -52 -43 -38 -79 -360 -275 -454 -275 -45 0 -76 40 -67 88
8 43 -4 52 -69 52 -94 0 -143 41 -223 184 -73 132 -111 177 -174 207 -30 15
-84 54 -119 87 -48 45 -74 62 -111 70 -46 11 -94 31 -450 186 -302 133 -340
160 -340 241 0 60 -14 68 -102 60 -40 -3 -68 -3 -62 2 22 16 32 50 27 91 -5
40 -4 42 29 56 19 8 103 19 191 26 184 12 251 24 286 48 14 9 33 20 41 24 27
14 151 -2 375 -47z m2797 -2445 c111 -42 172 -110 184 -206 4 -27 13 -61 21
-76 32 -65 53 -628 32 -868 -21 -240 -18 -304 24 -475 56 -229 60 -296 51
-730 -5 -209 -9 -468 -8 -577 0 -171 3 -200 19 -224 13 -20 20 -60 26 -153 11
-160 22 -220 64 -347 34 -103 65 -236 84 -354 20 -121 39 -171 87 -214 65 -61
124 -196 169 -386 16 -69 106 -849 125 -1085 6 -77 15 -327 20 -555 5 -228 14
-437 19 -465 5 -27 26 -111 45 -185 46 -176 189 -887 215 -1071 11 -79 25
-205 31 -279 14 -179 33 -309 75 -520 42 -215 49 -272 75 -630 23 -313 40
-448 71 -559 25 -93 42 -124 78 -150 36 -26 51 -86 81 -331 12 -91 41 -313 66
-495 61 -445 92 -721 104 -938 25 -432 29 -476 55 -551 29 -85 44 -214 45
-386 1 -142 12 -280 36 -423 14 -82 15 -113 5 -186 -21 -167 -71 -276 -139
-306 -48 -21 -67 -53 -76 -124 -9 -69 -29 -107 -66 -126 -35 -18 -60 -52 -60
-81 0 -22 -32 -61 -65 -80 -19 -10 -18 -13 12 -75 37 -74 55 -157 78 -359 16
-145 40 -277 70 -380 38 -128 29 -607 -15 -828 -31 -159 -41 -361 -41 -857 0
-649 14 -887 76 -1327 26 -183 39 -250 58 -290 21 -45 25 -68 25 -153 1 -61
11 -157 26 -245 54 -307 60 -644 15 -820 -19 -73 -21 -102 -16 -210 6 -133 29
-276 53 -321 7 -15 23 -30 34 -34 16 -5 20 -15 20 -47 0 -35 -6 -46 -41 -79
l-40 -37 31 -71 c32 -74 42 -118 59 -267 6 -49 22 -122 35 -160 43 -123 60
-382 77 -1190 12 -575 9 -943 -8 -984 -6 -14 -31 -46 -56 -71 -25 -25 -49 -59
-53 -75 -3 -16 -27 -76 -52 -134 -44 -100 -46 -109 -45 -195 1 -49 9 -135 19
-190 12 -71 18 -160 19 -310 2 -183 5 -226 28 -335 54 -259 117 -437 177 -499
48 -49 57 -80 41 -141 -14 -53 -8 -76 20 -85 26 -9 35 -35 44 -120 4 -39 20
-108 35 -155 40 -123 65 -235 114 -497 l43 -232 -101 -104 c-75 -78 -131 -124
-216 -180 -225 -146 -484 -267 -630 -293 -98 -17 -157 -39 -365 -137 -199 -93
-300 -131 -331 -123 -25 7 -49 -12 -59 -44 -4 -12 -38 -35 -92 -60 -47 -23
-197 -101 -334 -175 -484 -262 -850 -434 -1104 -521 -119 -40 -151 -47 -213
-46 -69 1 -76 -1 -110 -32 -52 -47 -91 -65 -167 -75 -36 -5 -80 -19 -98 -30
-56 -37 -151 -81 -172 -81 -27 0 -144 -56 -220 -106 -54 -34 -96 -55 -172 -85
-12 -4 -34 -32 -48 -60 -48 -93 -159 -195 -237 -217 -41 -11 -75 -33 -161
-104 -79 -66 -95 -68 -175 -26 -117 60 -128 101 -112 390 21 372 129 911 221
1105 17 35 55 90 85 123 84 90 84 94 95 525 13 573 30 736 99 945 40 121 71
296 90 515 16 186 39 379 60 505 30 179 49 353 60 541 10 173 21 229 45 229
22 0 36 53 45 176 5 75 15 136 24 155 21 43 34 122 41 264 8 154 21 228 49
290 37 80 66 231 91 484 37 375 12 576 -129 1019 -88 276 -90 298 -78 827 11
462 16 519 58 634 21 55 60 111 78 111 18 0 23 16 32 92 4 35 17 91 30 125 36
97 69 264 114 563 32 218 48 300 79 395 43 132 79 284 111 475 22 125 22 162
1 290 -18 106 -13 454 8 585 63 383 144 1280 167 1820 9 222 24 306 64 351
l31 36 -6 171 -6 172 29 80 c17 44 46 117 66 162 46 102 54 161 32 236 -28 97
-39 301 -32 612 9 426 29 687 66 855 34 153 42 347 39 925 -2 481 0 566 15
680 10 72 24 148 32 170 19 54 18 71 -8 105 -20 28 -21 36 -14 172 3 79 11
197 16 263 5 66 9 226 9 356 1 190 -2 246 -15 290 -22 72 -15 319 11 393 19
55 15 70 -40 145 -37 51 -45 90 -55 281 -9 183 -32 328 -75 471 -64 212 -84
342 -86 571 l-1 164 50 149 c70 210 76 254 77 575 0 302 -13 411 -61 500 -35
67 -42 92 -54 187 -14 124 -29 182 -56 230 -31 54 -30 72 6 130 17 26 30 57
30 70 0 56 -150 418 -208 502 -60 86 -72 113 -72 161 0 61 -24 157 -44 179
-26 29 -19 80 24 164 68 134 69 141 22 243 -22 49 -43 105 -47 124 -9 42 -63
151 -139 279 -80 135 -90 172 -82 295 8 119 -2 198 -44 328 -34 108 -60 247
-60 325 0 82 -27 197 -71 299 -52 122 -63 209 -49 398 16 233 38 366 72 443
17 38 21 79 28 272 12 305 16 330 99 562 18 50 35 121 40 170 9 97 25 133 90
202 108 117 263 220 590 391 233 122 314 170 360 211 49 44 68 52 140 64 34 6
117 34 184 63 67 29 147 58 177 65 68 15 165 8 232 -17z m-22942 -1240 c388
-6 851 -15 1030 -21 532 -17 3241 -24 3760 -10 398 11 450 11 488 -3 24 -8 98
-23 165 -31 88 -12 162 -30 267 -65 80 -26 161 -51 180 -55 48 -10 152 -58
168 -78 24 -29 122 -57 231 -68 139 -13 582 -63 841 -95 227 -28 336 -57 385
-103 58 -55 66 -56 168 -21 87 31 93 31 122 16 21 -11 66 -16 152 -18 119 -3
124 -4 148 -30 28 -30 38 -29 95 9 45 30 80 29 223 -7 65 -16 163 -34 218 -40
56 -5 130 -21 167 -34 37 -13 94 -34 127 -46 49 -18 73 -21 133 -17 70 5 74 4
102 -23 17 -17 46 -32 67 -35 103 -17 143 -28 203 -58 l65 -32 226 3 c350 4
630 -33 745 -98 30 -16 60 -30 68 -30 8 0 28 17 44 38 23 28 34 35 45 27 8 -5
25 -18 38 -27 35 -24 155 -46 346 -63 307 -27 477 -47 523 -61 92 -28 453 -13
655 27 98 20 128 32 255 102 107 59 204 81 350 80 69 0 161 -2 206 -4 79 -4
81 -3 135 34 30 20 65 37 77 37 13 0 56 -14 95 -32 91 -39 120 -42 707 -68
659 -28 832 -41 1280 -95 361 -44 343 -42 610 -60 283 -19 467 -46 617 -89 65
-19 152 -41 193 -49 201 -41 420 -48 444 -15 20 28 62 38 154 38 185 0 532
-82 532 -126 0 -18 50 -23 300 -34 118 -5 229 -14 245 -20 42 -15 57 -37 43
-63 -27 -51 16 -147 76 -167 20 -6 44 -26 59 -48 43 -61 107 -207 123 -279 24
-110 34 -134 80 -205 72 -109 84 -144 95 -286 19 -247 19 -250 45 -288 35 -51
48 -88 89 -254 20 -80 61 -233 90 -341 96 -348 90 -308 87 -639 -3 -335 0
-366 65 -590 60 -209 93 -347 93 -392 0 -27 -7 -44 -26 -63 -35 -35 -28 -60
16 -62 19 -1 41 -2 48 -2 48 -3 97 -339 109 -751 6 -216 1 -252 -47 -318 -34
-47 -49 -54 -43 -17 4 19 0 25 -21 31 -38 9 -73 -18 -86 -66 -11 -41 -33 -60
-69 -60 -30 0 -27 -35 9 -111 44 -94 47 -132 15 -241 -44 -154 -50 -236 -34
-447 8 -102 14 -274 14 -381 0 -165 -4 -210 -23 -292 -29 -129 -49 -258 -62
-408 -25 -291 -56 -409 -123 -479 -29 -30 -38 -45 -28 -48 26 -10 51 -43 51
-68 0 -41 26 -91 60 -117 45 -32 60 -67 70 -161 6 -46 21 -114 34 -152 31 -90
44 -175 56 -372 11 -192 23 -249 61 -305 45 -68 38 -179 -17 -238 -12 -14 -43
-61 -69 -105 -60 -102 -97 -141 -162 -170 -63 -29 -89 -68 -59 -91 14 -9 36
-12 77 -7 57 6 59 5 69 -21 5 -15 10 -66 10 -114 0 -115 22 -256 49 -315 17
-38 24 -79 31 -205 5 -86 21 -220 35 -297 29 -161 30 -195 10 -250 -20 -56
-18 -130 7 -323 19 -142 23 -214 23 -482 0 -289 -3 -334 -29 -545 -26 -200
-29 -264 -30 -485 0 -353 21 -510 91 -664 57 -127 76 -255 77 -531 1 -260 -7
-313 -60 -414 -19 -35 -34 -67 -34 -72 0 -4 23 -29 50 -55 60 -57 72 -93 59
-172 -17 -109 -12 -159 26 -236 27 -55 40 -104 59 -216 39 -226 100 -446 136
-485 32 -36 52 -87 57 -146 5 -52 3 -61 -20 -89 -15 -17 -28 -45 -31 -63 -3
-18 -10 -63 -16 -102 -12 -78 -59 -255 -126 -475 -48 -157 -52 -195 -29 -241
21 -39 41 -246 56 -559 17 -344 18 -1697 1 -2145 -52 -1436 -93 -2250 -122
-2453 -13 -88 -13 -194 0 -228 6 -15 24 -44 40 -64 49 -62 55 -113 36 -301 -9
-90 -21 -245 -27 -344 -14 -244 -33 -385 -60 -443 -20 -41 -23 -64 -23 -177
-1 -125 -2 -132 -34 -199 -41 -88 -41 -108 3 -142 48 -36 46 -59 -20 -192
-123 -251 -288 -766 -314 -980 -17 -133 -80 -300 -214 -569 -88 -174 -146
-272 -294 -492 -68 -101 -155 -236 -193 -300 -37 -64 -83 -130 -102 -147 -30
-29 -41 -33 -138 -43 -58 -6 -224 -24 -370 -41 -302 -34 -489 -39 -626 -14
-49 8 -137 24 -197 35 -59 10 -169 24 -245 29 -207 17 -262 26 -287 50 -71 66
-583 41 -919 -45 -94 -24 -211 -49 -261 -55 -122 -15 -134 -18 -179 -49 l-39
-26 -291 -6 c-326 -7 -271 2 -646 -112 -229 -70 -785 -201 -940 -221 -176 -24
-325 -34 -638 -46 -608 -22 -782 -36 -858 -70 -69 -30 -115 -34 -484 -37 -195
-1 -386 -4 -425 -5 -38 -1 -132 4 -208 11 -239 23 -763 -12 -971 -65 -68 -17
-111 -23 -140 -19 -51 8 -84 -4 -157 -59 -106 -80 -321 -152 -422 -143 -29 3
-117 12 -197 20 -80 9 -244 21 -365 27 -121 6 -258 16 -305 22 -103 14 -140
14 -205 -1 -50 -11 -121 -7 -340 19 -96 11 -144 5 -209 -27 -43 -22 -54 -23
-90 -14 -23 5 -53 12 -68 16 -16 3 -198 10 -405 15 -396 10 -494 19 -522 44
-12 11 -38 16 -82 16 -35 0 -102 7 -149 15 -129 23 -299 43 -460 55 -185 14
-423 50 -620 96 -444 101 -463 105 -595 111 -87 3 -138 10 -153 20 -38 24
-165 52 -334 73 -199 26 -297 44 -371 70 -32 11 -108 29 -170 39 -206 35 -379
43 -733 36 -297 -7 -334 -6 -362 9 -29 15 -39 15 -105 2 -39 -8 -99 -17 -132
-20 -181 -18 -376 -41 -590 -71 -400 -57 -706 -88 -968 -98 -72 -2 -79 -5
-100 -31 -22 -28 -29 -29 -163 -43 -76 -7 -206 -27 -289 -43 -180 -34 -388
-65 -545 -80 -173 -17 -176 -18 -225 -60 -26 -22 -58 -43 -73 -46 -42 -9 -130
-44 -205 -81 -108 -54 -163 -64 -362 -70 -204 -6 -707 11 -805 27 -36 6 -83
20 -105 31 -32 17 -50 20 -100 15 -59 -7 -61 -6 -129 39 -74 48 -100 54 -146
30 -16 -8 -72 -20 -125 -27 -93 -12 -99 -11 -163 11 -59 22 -88 25 -265 29
-184 4 -200 6 -218 25 -14 16 -55 27 -171 49 -205 38 -364 46 -442 24 -46 -14
-89 -17 -201 -14 l-143 3 -26 -28 -27 -29 -43 26 c-59 35 -170 63 -295 76
-124 12 -529 12 -1121 0 -478 -9 -949 1 -1151 25 -68 9 -218 26 -334 40 -115
14 -241 29 -280 34 -38 5 -160 17 -270 25 -289 23 -293 24 -327 56 -21 20 -44
30 -81 35 -78 10 -231 52 -279 76 -24 12 -62 35 -84 50 -23 16 -64 34 -90 41
-58 15 -113 66 -140 129 -41 94 -106 224 -154 305 -99 168 -175 337 -265 590
-120 336 -182 594 -215 894 -11 102 -30 250 -41 330 -26 179 -21 255 28 440
33 128 36 146 40 336 7 246 -29 1208 -77 2124 -19 362 -9 745 30 1104 43 394
37 494 -166 2496 -52 514 -148 1475 -214 2135 -130 1297 -244 2421 -315 3095
-64 609 -68 681 -61 950 12 436 24 611 305 4395 117 1568 155 2137 170 2526
11 287 4 392 -28 435 -20 28 -21 32 -8 69 18 50 24 96 37 265 12 153 38 336
75 520 54 274 101 724 175 1675 49 633 79 947 95 990 21 58 112 174 252 324
68 72 139 153 159 181 53 74 271 232 449 326 114 60 211 88 546 154 358 71
674 142 989 220 468 117 812 190 1225 260 276 47 374 57 700 70 254 10 458 26
485 37 39 16 691 21 2435 17 1045 -2 2217 -8 2605 -14z m-12495 -23840 c82
-39 170 -122 203 -191 14 -29 22 -64 22 -97 0 -29 10 -78 21 -110 60 -160 61
-167 65 -276 6 -179 45 -277 165 -411 83 -94 95 -126 109 -309 16 -215 54
-913 54 -1022 1 -83 -2 -103 -16 -118 -22 -22 -23 -87 -3 -174 19 -82 37 -116
96 -180 93 -102 145 -256 155 -467 12 -225 -25 -431 -90 -500 -40 -42 -79 -46
-151 -15 -60 26 -73 25 -132 -5 l-48 -25 -57 20 c-70 24 -132 25 -280 4 -159
-24 -335 -22 -484 5 -144 25 -236 27 -295 5 -55 -20 -127 -20 -204 -1 -134 34
-393 57 -641 57 -102 0 -174 -4 -180 -10 -22 -22 -190 -33 -417 -26 -383 11
-618 36 -694 75 -61 32 -149 41 -488 51 -325 10 -550 22 -730 40 -181 18 -590
73 -598 80 -12 11 -67 212 -67 248 0 51 20 80 132 187 110 106 272 232 357
277 40 22 57 39 79 79 46 88 68 106 179 147 127 48 201 95 219 138 19 46 65
77 195 134 127 56 173 85 188 117 6 12 23 25 38 28 53 11 95 40 149 100 65 75
126 110 219 125 198 34 305 94 488 270 151 146 186 170 253 170 94 0 184 64
184 130 0 64 101 181 172 200 74 20 121 45 201 109 164 130 321 305 333 372 9
44 17 54 68 78 24 12 73 55 115 102 53 57 88 87 125 103 28 13 77 47 109 75
64 56 111 83 197 113 80 27 151 78 270 194 145 141 155 146 260 141 71 -3 96
-9 155 -37z m40711 -825 c48 -9 92 -25 115 -41 35 -24 43 -25 99 -19 51 6 64
4 80 -10 29 -26 160 -36 336 -25 181 11 268 24 333 50 88 34 270 44 866 44
660 1 631 5 861 -108 229 -112 289 -129 539 -151 196 -17 232 -29 294 -104 68
-81 89 -88 302 -101 273 -16 346 -35 408 -105 63 -72 41 -123 -118 -279 -153
-151 -261 -240 -336 -275 -44 -21 -77 -47 -118 -94 -56 -64 -138 -117 -179
-117 -44 0 -197 -93 -468 -283 -273 -192 -443 -294 -545 -327 -74 -24 -177
-95 -282 -192 -205 -193 -312 -244 -683 -328 -165 -37 -218 -61 -299 -134 -44
-38 -78 -60 -108 -68 -31 -7 -64 -29 -110 -70 -68 -62 -130 -97 -171 -98 -38
0 -74 -25 -133 -92 -41 -46 -68 -68 -97 -76 -21 -7 -60 -30 -85 -52 -50 -44
-102 -70 -141 -70 -43 0 -76 -39 -96 -114 -31 -111 -57 -136 -140 -136 -54 0
-157 -35 -209 -70 -24 -17 -60 -35 -80 -40 -20 -5 -61 -16 -91 -24 -33 -9 -75
-32 -105 -56 -108 -86 -203 -150 -265 -180 -112 -54 -144 -72 -170 -96 -40
-37 -124 -50 -240 -36 -131 15 -163 28 -390 147 -234 123 -336 184 -372 224
-31 32 -158 83 -268 106 -133 28 -315 38 -603 32 -282 -5 -378 -15 -592 -57
-162 -32 -296 -42 -530 -43 -243 0 -357 12 -449 48 -83 32 -125 43 -252 60
-169 24 -543 35 -985 28 -299 -5 -423 -3 -470 6 -136 26 -282 86 -328 134 -45
49 -45 161 0 299 30 96 71 147 134 170 28 10 68 36 94 62 71 68 122 88 273
106 116 15 227 45 337 91 116 50 238 82 406 109 172 27 263 53 360 101 60 29
97 41 149 46 63 6 71 9 110 48 28 28 64 50 113 69 101 38 182 94 280 191 58
58 104 94 146 115 34 16 109 70 167 120 119 102 219 159 334 190 83 22 142 48
191 85 43 32 102 60 196 95 94 34 191 92 316 189 118 91 194 175 242 269 23
42 75 120 116 172 67 85 94 130 168 288 38 81 253 257 380 311 67 29 114 26
263 -14 245 -68 293 -71 449 -31 138 35 363 72 579 96 305 33 366 35 472 15z
m5302 -1545 c23 -13 53 -40 67 -60 33 -47 78 -179 104 -302 28 -135 49 -172
101 -180 24 -3 25 -5 22 -67 -2 -52 2 -72 23 -112 19 -36 25 -64 25 -108 0
-108 88 -420 156 -551 18 -36 38 -85 43 -110 19 -88 36 -325 51 -690 13 -308
25 -463 50 -615 24 -146 25 -206 4 -321 -21 -114 -21 -234 -1 -304 36 -122 52
-274 67 -605 31 -709 75 -1159 129 -1335 32 -104 50 -191 61 -294 7 -67 20
-122 44 -184 75 -193 112 -474 121 -922 6 -306 11 -344 96 -730 110 -499 129
-578 170 -695 49 -142 57 -198 69 -472 10 -252 24 -344 76 -496 51 -152 81
-266 108 -424 33 -188 43 -221 73 -249 23 -21 24 -28 18 -74 -5 -40 -4 -55 9
-69 25 -27 44 -93 61 -209 29 -196 49 -256 90 -266 38 -10 53 -67 116 -429 24
-142 49 -252 64 -291 33 -79 64 -249 115 -626 52 -379 90 -609 129 -776 45
-191 49 -239 55 -579 5 -322 17 -462 41 -499 35 -53 85 -490 86 -746 1 -188
-24 -285 -133 -504 -54 -110 -100 -173 -134 -186 -32 -13 -69 -65 -126 -182
-65 -132 -129 -219 -234 -314 -141 -128 -165 -167 -208 -338 -50 -202 -91
-327 -121 -367 -64 -87 -85 -125 -85 -152 0 -22 -12 -41 -49 -75 -27 -26 -68
-78 -91 -117 -61 -102 -121 -167 -199 -219 -51 -33 -74 -56 -90 -88 -11 -24
-48 -74 -82 -113 -33 -38 -106 -130 -161 -203 -121 -163 -158 -200 -237 -242
-110 -59 -261 -237 -261 -309 0 -29 -18 -61 -47 -84 -30 -24 -47 -66 -62 -152
-19 -107 -42 -150 -130 -234 -67 -64 -82 -84 -92 -125 -9 -36 -26 -63 -70
-109 -32 -34 -79 -100 -105 -147 -101 -184 -204 -300 -275 -309 -39 -6 -43 -9
-54 -48 -34 -114 -234 -360 -425 -522 -125 -107 -190 -173 -213 -217 -20 -38
-71 -85 -130 -118 -63 -36 -140 -131 -207 -257 -30 -58 -75 -124 -99 -148 -24
-24 -48 -60 -53 -80 -14 -49 -102 -136 -151 -149 -59 -16 -113 -67 -310 -291
-227 -257 -291 -325 -651 -691 -285 -290 -456 -476 -527 -575 -20 -27 -63
-102 -94 -165 -81 -162 -101 -189 -244 -330 -90 -88 -134 -140 -151 -175 -32
-70 -57 -95 -94 -95 -43 0 -115 -36 -228 -114 -118 -80 -148 -89 -186 -54 -39
36 -65 48 -109 48 -42 0 -63 14 -63 41 0 19 19 29 54 29 13 0 35 9 50 21 36
29 35 71 -4 106 -16 14 -30 32 -30 38 0 7 22 31 50 54 59 49 68 81 50 174 -15
82 -4 126 57 214 53 78 79 138 88 205 4 32 12 51 25 58 22 12 35 85 50 275 5
72 15 176 22 231 10 92 10 107 -7 149 -23 63 -17 146 25 301 17 64 40 159 50
211 21 108 50 162 141 267 108 123 115 152 124 506 8 321 21 493 41 557 15 49
15 55 -1 95 -11 27 -19 80 -22 143 -5 113 -12 134 -54 159 -41 24 -61 68 -57
124 3 44 5 47 31 45 31 -2 31 -1 -27 79 -55 77 -60 127 -53 561 7 358 6 382
-13 457 -28 109 -76 242 -116 323 -22 42 -46 117 -64 200 -17 73 -55 211 -86
307 -115 362 -117 383 -107 1250 9 694 2 1195 -17 1355 -11 96 -18 117 -60
195 -17 31 -27 83 -46 237 -3 26 -17 56 -35 80 -27 33 -30 43 -24 78 11 58 7
92 -14 133 -27 54 -39 148 -51 412 -14 297 -9 1241 8 1288 6 19 47 68 95 115
84 83 147 175 147 217 0 13 -20 59 -44 104 -57 106 -63 134 -37 185 26 51 28
164 5 301 -9 52 -17 140 -18 196 -1 93 1 104 29 160 l30 59 6 385 c6 384 9
419 45 479 17 28 17 32 -3 88 -11 32 -33 87 -48 121 -14 35 -38 114 -51 175
-30 135 -59 201 -112 259 -67 73 -77 101 -77 208 0 66 8 124 24 190 20 83 23
110 17 215 -3 66 -17 192 -31 280 -70 433 -68 418 -56 570 19 238 22 333 30
865 9 559 7 608 -45 900 -36 208 -68 335 -110 442 -20 51 -38 108 -41 126 -4
19 -15 40 -29 48 -12 8 -25 23 -29 32 -3 9 -12 96 -20 193 -25 309 -98 604
-195 794 -38 74 -59 128 -63 162 -7 65 -45 138 -114 228 -61 78 -87 124 -98
174 -4 19 -24 52 -45 75 -62 68 -74 99 -78 212 -7 182 43 287 148 308 42 9
105 71 139 138 22 44 46 74 79 98 83 62 123 108 116 134 -13 54 78 151 218
231 112 65 179 111 270 187 94 79 145 105 243 123 91 18 116 30 181 88 56 51
125 88 206 112 70 20 104 45 111 85 7 32 11 34 107 65 30 10 119 47 198 82
169 76 236 102 397 155 161 52 271 115 450 258 120 97 155 120 181 120 52 0
162 39 278 98 89 45 127 72 200 142 101 95 151 132 242 178 33 17 77 49 97 71
46 51 50 98 12 153 -14 20 -25 42 -25 47 0 22 49 11 69 -15 18 -23 27 -26 58
-22 63 9 278 112 1123 540 52 26 120 55 150 63 77 21 176 14 228 -15z m-17416
-1698 c115 -56 547 -103 1215 -132 127 -6 258 -15 290 -21 67 -13 135 -1 222
37 90 40 160 55 291 61 148 7 250 -7 334 -44 71 -32 91 -68 80 -140 -14 -92
-95 -146 -399 -266 -253 -100 -388 -127 -635 -127 -180 0 -307 13 -404 42 -59
18 -76 19 -120 10 -63 -14 -215 -28 -451 -42 -209 -13 -400 -34 -500 -55 -175
-37 -628 -43 -741 -11 -54 16 -164 32 -289 41 -267 20 -420 65 -516 152 -72
65 -110 174 -81 230 20 36 129 130 159 136 17 3 54 26 84 50 108 88 52 81 694
82 394 1 581 5 605 13 47 15 109 9 162 -16z m-14255 -376 c37 -8 109 -17 158
-21 121 -8 180 -22 240 -55 76 -41 93 -42 185 -15 46 14 93 25 105 25 12 0 55
-15 96 -34 41 -18 144 -52 229 -75 238 -64 412 -133 451 -177 9 -11 26 -51 37
-90 23 -82 17 -104 -29 -104 -21 0 -40 -11 -64 -35 -43 -42 -95 -58 -280 -87
-184 -28 -536 -32 -575 -7 -41 26 -65 29 -335 44 -269 14 -360 28 -479 71 -95
34 -219 61 -372 79 -161 20 -241 38 -288 66 -20 11 -43 18 -51 15 -36 -14 -3
129 41 175 28 29 42 33 204 59 116 19 307 77 396 120 118 58 212 71 331 46z
m-10882 -201 c216 -18 290 -27 425 -55 105 -21 432 -66 550 -76 120 -10 132
-24 156 -179 14 -92 10 -157 -10 -174 -18 -15 -151 -49 -246 -62 -133 -19
-435 -16 -565 5 -215 35 -369 100 -466 196 -76 75 -99 137 -99 265 l0 95 33 0
c18 0 118 -7 222 -15z m-4130 -104 c321 -21 447 -34 494 -53 14 -6 127 -14
251 -19 325 -12 416 -30 611 -119 237 -109 586 -220 694 -220 113 0 545 -100
860 -198 171 -54 275 -80 389 -98 37 -5 53 -18 110 -85 12 -15 24 -17 58 -13
39 5 50 2 106 -36 35 -23 86 -51 115 -62 103 -39 841 -118 1106 -118 60 0 85
-5 116 -22 38 -21 51 -22 300 -22 262 0 494 15 543 36 35 15 1254 14 1687 -2
351 -12 379 -16 615 -100 205 -72 317 -100 455 -111 217 -18 307 -42 805 -217
302 -106 642 -181 1050 -231 334 -40 613 -57 1200 -71 768 -19 938 -37 1415
-155 401 -99 751 -204 930 -279 33 -13 174 -48 314 -76 332 -66 544 -121 831
-215 375 -122 347 -118 760 -120 353 -3 417 -7 705 -47 202 -28 371 -28 560 0
197 29 359 45 830 82 584 45 793 70 959 111 94 24 193 67 244 107 81 64 158
86 358 103 126 10 276 33 541 84 73 13 203 34 290 45 182 24 371 55 668 110
507 95 699 114 1165 114 354 1 392 -1 675 -31 729 -78 1060 -68 1590 48 268
59 462 119 561 174 50 28 81 38 145 45 102 12 134 22 234 76 121 64 325 120
640 173 250 42 372 53 700 61 326 8 377 13 415 45 59 50 440 117 686 121 145
3 167 5 230 29 127 49 228 76 359 96 150 23 240 43 415 94 100 29 135 35 175
30 34 -4 62 -1 85 9 52 21 135 34 341 51 221 18 289 29 348 57 28 14 48 18 56
12 66 -49 62 -48 143 -35 56 10 336 15 1037 21 1115 10 1277 17 1585 71 267
47 462 111 521 171 42 44 130 80 249 102 82 16 116 11 136 -19 23 -35 39 -37
96 -7 49 26 59 27 178 25 69 -1 177 -9 240 -17 229 -32 483 -38 1250 -33 725
6 1076 16 1270 38 182 20 261 22 335 5 163 -37 287 -57 452 -71 225 -20 293
-34 488 -101 88 -31 223 -78 301 -105 82 -28 181 -55 237 -63 64 -10 105 -21
124 -35 29 -22 119 -46 299 -80 56 -10 113 -25 126 -32 14 -8 44 -24 66 -36
23 -13 103 -43 179 -68 76 -25 152 -53 169 -63 17 -9 46 -25 63 -35 22 -12 68
-21 139 -27 120 -10 137 -14 170 -44 21 -18 34 -21 104 -18 102 3 130 -12 270
-146 180 -173 286 -327 323 -472 30 -116 19 -336 -23 -463 -14 -44 -22 -54
-51 -63 -31 -10 -54 -30 -65 -58 -2 -6 -44 30 -92 80 -76 78 -96 93 -137 103
-39 9 -60 24 -109 76 -121 127 -251 134 -433 21 l-70 -43 2 -334 c3 -475 21
-681 65 -754 10 -19 24 -64 29 -101 5 -37 21 -94 35 -128 86 -201 134 -399
134 -552 1 -118 20 -220 63 -329 39 -100 52 -146 62 -220 7 -54 34 -113 60
-135 31 -25 56 -91 65 -168 10 -89 24 -130 74 -226 l37 -69 -3 -122 c-3 -118
-2 -122 23 -152 19 -23 29 -51 37 -105 6 -41 29 -134 51 -208 21 -74 55 -189
74 -256 55 -188 67 -289 77 -674 9 -319 13 -374 39 -500 11 -53 27 -323 41
-710 l10 -275 -31 -170 c-23 -130 -32 -210 -36 -342 -5 -158 -4 -180 18 -270
l24 -98 0 -670 c0 -746 -6 -856 -53 -960 -26 -58 -27 -66 -26 -235 0 -132 5
-204 21 -295 29 -163 68 -281 101 -311 15 -13 38 -34 50 -47 34 -31 158 -287
174 -355 9 -41 23 -69 49 -97 52 -57 69 -96 79 -183 13 -111 25 -161 67 -259
33 -79 37 -97 35 -170 -1 -89 -6 -78 94 -202 26 -33 34 -51 30 -68 -3 -13 -9
-34 -12 -47 -9 -35 29 -112 134 -274 183 -281 192 -315 212 -776 15 -362 27
-438 93 -601 41 -100 41 -100 48 -280 6 -132 16 -222 38 -340 58 -311 85 -648
79 -972 -4 -173 -8 -227 -22 -263 -28 -73 -45 -219 -56 -470 -18 -443 -32
-557 -77 -644 -14 -28 -33 -64 -41 -80 -13 -25 -13 -38 -3 -85 7 -31 15 -134
18 -229 6 -166 5 -175 -16 -202 -19 -26 -23 -53 -35 -235 -15 -225 -21 -246
-79 -270 -138 -57 -418 -67 -697 -24 -110 17 -291 106 -305 149 -8 25 -46 38
-135 45 -101 9 -216 39 -325 85 -119 50 -180 63 -249 55 -51 -7 -60 -5 -96 20
-40 27 -40 28 -158 21 -96 -6 -125 -5 -162 9 -100 36 -105 37 -167 15 -31 -11
-58 -20 -59 -20 -1 0 -26 24 -56 53 -33 32 -94 72 -155 104 -197 104 -273 122
-613 148 -215 17 -261 24 -297 50 -38 27 -204 34 -778 35 -716 1 -1447 16
-1494 31 -20 6 -43 18 -52 25 -33 29 -131 38 -429 37 -310 0 -508 -14 -575
-40 -60 -24 -165 -26 -326 -8 -396 45 -693 64 -1454 90 -504 18 -616 30 -679
70 -38 24 -137 35 -330 35 -205 0 -374 16 -551 51 -70 14 -152 23 -225 24 -63
1 -127 7 -142 13 -55 23 -284 37 -1088 67 -529 20 -833 39 -1132 70 -572 59
-700 80 -797 130 l-49 24 -28 -21 c-33 -27 -69 -27 -157 1 -142 44 -686 136
-872 147 -76 5 -118 13 -173 35 -78 31 -123 36 -168 18 -17 -6 -145 -11 -313
-13 -232 -2 -295 -6 -334 -19 -87 -30 -200 -39 -842 -72 -165 -8 -430 -19
-590 -24 -211 -7 -321 -15 -405 -30 -135 -23 -272 -64 -291 -87 -24 -29 -61
-35 -249 -45 -192 -9 -239 -17 -266 -44 -13 -13 -31 -14 -102 -9 -83 6 -89 5
-122 -20 -57 -42 -101 -58 -185 -67 -109 -12 -164 -26 -205 -53 -57 -37 -98
-47 -231 -56 -134 -9 -169 -19 -169 -49 0 -25 -17 -38 -84 -60 -113 -40 -168
-113 -185 -247 -10 -81 -23 -107 -68 -135 -42 -26 -53 -67 -53 -195 0 -139
-22 -257 -70 -368 -77 -181 -76 -312 5 -407 43 -51 69 -116 55 -139 -5 -8 -18
-10 -34 -6 -54 13 -52 -11 4 -69 49 -51 68 -95 86 -207 8 -49 22 -106 31 -126
13 -29 18 -78 21 -234 l4 -198 -74 0 c-365 1 -1084 29 -1448 56 -596 43 -1868
38 -2545 -11 -110 -8 -375 -24 -590 -35 -462 -24 -631 -36 -703 -52 -40 -9
-68 -8 -121 2 -82 15 -116 9 -157 -32 -21 -20 -40 -29 -55 -26 -22 3 -24 7
-22 51 3 49 -1 53 -40 38 -45 -17 -280 -31 -686 -41 -767 -19 -1088 -37 -1221
-70 -85 -21 -327 -62 -505 -84 -76 -10 -286 -20 -575 -26 -466 -11 -632 -21
-685 -43 -33 -13 -246 -15 -1135 -7 -427 4 -556 2 -755 -13 -369 -27 -564 -47
-635 -64 -75 -18 -127 -19 -225 -4 -44 6 -398 10 -950 11 -915 1 -1224 9
-1252 32 -12 10 -68 13 -232 13 -185 0 -224 -3 -274 -19 -58 -19 -58 -19 -86
2 -67 49 -469 66 -1429 59 -710 -5 -910 -14 -1007 -42 -80 -23 -1167 -63
-2610 -95 -411 -9 -640 -21 -688 -36 -11 -3 -28 -15 -38 -25 -33 -33 -57 -19
-70 42 -6 24 -14 46 -20 50 -5 3 -38 -1 -72 -9 -89 -20 -655 -22 -789 -3 -94
14 -98 14 -155 -8 -171 -66 -162 -64 -217 -47 -89 28 -360 38 -824 33 -301 -3
-449 -9 -477 -17 -75 -23 -120 -23 -169 -1 -94 41 -145 44 -561 31 -250 -8
-689 -11 -1225 -8 l-835 4 -185 26 c-267 38 -426 49 -775 53 -318 3 -375 9
-447 46 -115 59 -192 165 -383 529 -53 102 -126 229 -161 283 -106 162 -127
216 -174 453 -33 170 -75 299 -128 394 -60 109 -64 137 -69 532 -6 403 12
1730 28 2033 12 248 23 320 54 365 31 45 44 106 45 203 0 154 -39 324 -85 367
-28 26 -32 52 -11 70 15 11 21 36 49 197 8 44 22 94 31 110 43 78 48 97 44
168 -3 60 -8 77 -30 104 -42 49 -43 85 -14 290 71 501 74 736 7 820 -47 59
-73 113 -81 169 -9 69 -30 112 -76 165 -19 20 -34 41 -34 45 0 5 12 18 26 31
25 22 25 24 19 109 -7 85 -6 89 19 119 32 38 46 74 46 119 0 26 -8 43 -36 70
-33 34 -35 39 -27 78 17 84 10 149 -19 194 -16 23 -28 50 -28 60 0 10 20 38
45 62 54 53 55 65 20 186 -31 108 -31 137 0 190 54 92 88 353 89 689 1 183 -3
247 -16 314 -33 153 -19 436 28 591 9 30 30 82 47 115 28 55 31 69 31 155 0
52 -4 149 -8 215 l-8 120 31 39 c32 41 51 91 51 141 0 60 22 108 72 161 l51
54 -41 44 c-49 53 -57 78 -48 157 5 40 4 59 -4 59 -49 0 -72 300 -64 865 6
482 18 715 41 801 19 70 15 84 -42 163 l-25 34 24 22 c29 27 42 93 32 167 -9
62 -33 125 -52 132 -21 8 -17 26 6 26 45 0 43 63 -6 147 -87 151 -89 161 -104
613 -16 488 -48 903 -90 1170 -47 297 -80 848 -62 1047 13 143 37 213 124 362
80 138 135 257 220 476 102 265 132 360 213 675 90 352 136 496 230 720 41 96
85 211 99 255 13 44 34 111 46 150 29 94 102 215 175 289 138 140 600 458 844
581 81 40 287 118 421 159 238 72 428 81 1330 67 975 -15 1315 -14 1475 4 257
30 668 108 799 151 27 9 72 20 100 25 79 12 478 3 831 -20z m19330 -1281 c90
-15 109 -34 113 -108 2 -51 -1 -65 -18 -82 -11 -11 -33 -20 -49 -20 -41 0 -81
-17 -112 -46 -18 -17 -45 -28 -90 -35 -78 -13 -124 -30 -174 -63 -70 -48 -267
-93 -505 -117 -170 -16 -269 1 -285 50 -3 11 -15 23 -26 26 -32 11 -168 -15
-294 -55 -179 -57 -266 -71 -595 -91 -208 -13 -1314 -5 -1580 12 -322 19 -482
56 -508 115 -9 19 -17 23 -36 18 -21 -5 -31 3 -70 53 -53 66 -134 223 -138
267 -3 25 2 31 27 39 41 14 726 12 995 -2 118 -6 352 -20 520 -31 478 -30 897
-43 1276 -38 326 4 353 6 409 26 129 46 529 86 910 90 94 1 197 -3 230 -8z
m30379 -12700 c71 -27 168 -114 203 -184 53 -105 40 -228 -42 -391 -70 -140
-160 -258 -274 -360 -55 -49 -146 -132 -203 -183 -167 -151 -304 -206 -423
-168 -103 32 -195 145 -195 239 0 57 35 148 55 141 34 -13 136 77 174 153 12
24 75 100 142 170 131 138 172 196 167 239 -2 22 3 31 24 42 27 13 27 14 13
40 -8 15 -22 37 -31 50 -16 21 -16 22 10 22 15 0 38 7 52 16 30 20 74 92 74
122 0 35 12 54 44 68 41 19 135 12 210 -16z m-24519 -4229 c197 -24 232 -27
678 -51 401 -23 598 -41 767 -71 87 -16 135 -19 195 -14 73 6 82 5 99 -14 18
-20 18 -21 -13 -49 -37 -33 -32 -42 23 -42 62 0 85 -10 102 -41 14 -28 22 -32
96 -44 45 -7 98 -49 98 -78 0 -31 -44 -98 -86 -133 -58 -46 -98 -64 -182 -80
-48 -9 -102 -29 -147 -53 -97 -53 -99 -53 -137 -25 -31 24 -37 25 -123 19 -84
-6 -92 -5 -119 16 -19 15 -42 23 -65 22 -20 0 -70 -2 -111 -3 -62 -2 -86 2
-137 24 -79 33 -100 33 -154 -4 -24 -16 -50 -30 -56 -30 -7 0 -25 14 -40 31
-26 29 -32 31 -76 26 -117 -14 -445 -189 -459 -245 -9 -32 19 -80 83 -148 70
-72 138 -119 189 -129 51 -11 106 -40 190 -103 l75 -56 -90 -42 c-101 -48
-154 -61 -184 -44 -17 9 -20 19 -18 57 l2 46 -63 34 c-80 45 -102 40 -141 -30
-16 -28 -37 -62 -46 -75 l-16 -23 -31 26 c-30 25 -34 26 -119 19 -78 -6 -93
-4 -132 15 -55 27 -77 51 -80 87 -2 23 3 30 28 37 101 32 104 37 71 117 -24
61 -106 199 -129 218 -9 8 -75 -4 -247 -48 -375 -93 -529 -113 -1160 -146
-430 -23 -660 -23 -730 -2 -64 20 -105 55 -131 112 -26 56 -24 103 7 164 34
69 90 113 237 186 91 46 125 68 135 88 40 84 315 167 622 188 301 20 489 57
571 113 22 14 39 38 50 67 9 25 26 50 38 56 12 6 84 14 159 18 165 8 232 20
264 48 22 19 31 20 153 14 72 -3 202 -14 290 -25z m4494 -471 c62 -7 90 -15
106 -30 20 -19 32 -20 137 -18 101 3 118 1 136 -16 18 -15 30 -17 77 -11 51 6
56 5 64 -17 11 -30 38 -54 82 -72 55 -23 73 -60 70 -137 -2 -44 -23 -60 -109
-80 -91 -21 -143 -44 -192 -86 -34 -28 -63 -82 -56 -105 3 -7 7 -25 10 -40 4
-15 17 -39 31 -54 17 -18 25 -39 25 -61 0 -33 1 -34 22 -19 12 9 34 16 48 16
33 0 70 26 70 50 0 31 16 31 55 0 48 -38 109 -55 155 -44 66 17 49 68 -27 80
-49 7 -64 27 -40 51 9 9 71 44 139 77 93 46 124 66 126 82 3 22 -11 30 -95 53
-67 18 -113 95 -113 187 0 78 56 106 173 85 84 -15 154 -14 167 2 6 6 17 21
24 31 13 19 15 19 61 -12 57 -38 63 -38 115 -12 64 33 102 27 240 -40 68 -33
134 -60 147 -60 17 0 27 10 37 35 8 19 20 35 25 35 6 0 49 -16 96 -35 205 -85
559 -127 765 -91 79 14 124 9 165 -18 34 -23 32 -38 -17 -100 -24 -30 -56 -73
-71 -96 -31 -46 -92 -79 -147 -80 -64 -1 -173 -29 -211 -55 -34 -24 -42 -26
-110 -20 -64 5 -78 4 -107 -15 -20 -12 -40 -37 -49 -59 -19 -49 -46 -64 -185
-100 -64 -17 -169 -54 -233 -81 -191 -84 -240 -94 -450 -94 -196 0 -233 7
-303 61 -67 51 -140 66 -325 67 -189 1 -182 4 -216 -76 -27 -63 -52 -87 -84
-81 -56 11 -220 -64 -305 -138 -32 -29 -40 -31 -86 -26 -28 3 -64 8 -81 12
-44 8 -57 -6 -66 -70 -12 -93 -42 -109 -99 -50 -19 19 -42 35 -53 35 -30 0
-85 -61 -91 -103 -3 -20 -8 -52 -11 -71 -3 -18 -14 -41 -25 -51 -19 -17 -21
-17 -40 0 -11 10 -22 26 -25 36 -8 25 -25 24 -25 -1 0 -37 -30 -79 -70 -100
-64 -33 -121 -24 -162 24 -17 20 -17 19 -18 -60 0 -131 -15 -153 -111 -168
-36 -6 -51 -16 -138 -82 -22 -17 -58 -34 -79 -38 -27 -4 -45 -14 -56 -31 -10
-15 -57 -44 -119 -74 -56 -27 -159 -76 -229 -109 -70 -33 -135 -70 -145 -81
-15 -18 -25 -20 -65 -15 -48 7 -48 7 -103 -49 -58 -60 -86 -73 -142 -64 -41 7
-89 -10 -117 -42 -23 -26 -36 -27 -36 -3 0 26 -28 48 -72 56 -23 4 -55 23 -86
51 -28 25 -57 45 -66 45 -10 0 -35 -10 -56 -22 -21 -13 -42 -19 -46 -15 -13
12 14 96 55 172 28 53 49 78 86 102 26 18 77 57 113 88 80 69 146 104 224 116
63 10 125 37 147 63 8 10 23 13 44 9 22 -3 51 4 92 22 99 45 164 64 234 71 87
9 109 18 121 50 10 25 13 26 58 19 110 -19 168 3 191 73 17 56 50 72 162 79
100 7 116 18 104 74 -9 40 13 71 68 98 67 32 117 28 167 -14 47 -39 61 -42 84
-19 21 20 20 33 -2 67 -42 62 -147 117 -226 117 -55 0 -89 19 -101 56 -16 48
-34 64 -73 64 -25 0 -45 -9 -73 -34 -27 -25 -50 -36 -86 -41 -66 -9 -92 -21
-102 -47 -7 -21 -15 -23 -77 -24 -52 0 -91 -8 -159 -34 -193 -71 -262 -91
-354 -101 -144 -16 -215 -35 -321 -84 -53 -25 -101 -45 -108 -45 -20 0 -23 18
-11 64 10 39 9 50 -5 71 -24 37 -20 59 31 169 31 68 48 119 51 156 5 64 15 80
48 80 42 0 62 32 70 109 9 92 16 97 105 82 84 -16 94 -10 102 59 3 28 9 55 12
60 3 6 41 26 83 45 42 20 121 63 175 97 129 78 243 131 342 158 44 12 109 35
145 50 82 35 172 47 473 60 169 8 251 15 280 26 82 31 276 41 426 24z m4846
-150 c103 -8 188 -8 320 1 232 16 973 16 1175 1 224 -18 301 -29 430 -64 144
-39 282 -46 505 -27 225 20 311 18 630 -13 154 -15 330 -32 391 -38 150 -14
249 -42 374 -105 58 -29 148 -68 200 -86 117 -41 150 -69 150 -131 0 -67 12
-76 46 -34 16 20 34 36 40 36 7 0 23 -15 37 -34 19 -24 39 -37 72 -45 36 -9
50 -19 66 -46 12 -19 27 -35 34 -35 7 0 38 12 69 26 63 29 97 29 221 1 112
-25 342 -39 586 -35 193 3 229 5 252 21 37 24 70 22 172 -14 84 -29 95 -31
181 -25 106 8 256 -5 441 -39 267 -50 353 -94 353 -179 0 -36 7 -51 47 -97 58
-68 89 -135 103 -223 13 -83 5 -163 -22 -228 -21 -49 -44 -70 -91 -82 -34 -8
-61 -50 -87 -138 -32 -106 -38 -109 -342 -181 -59 -14 -134 -38 -165 -53 -57
-27 -61 -27 -298 -32 -269 -5 -484 9 -520 32 -21 14 -31 13 -105 -4 -96 -23
-146 -25 -180 -5 -34 19 -102 19 -166 -2 l-53 -16 -29 31 c-27 29 -36 32 -89
32 -81 0 -151 -23 -200 -65 -47 -40 -69 -49 -136 -59 -32 -5 -59 -17 -82 -38
-28 -24 -45 -30 -89 -32 -34 -1 -63 -9 -81 -22 -106 -75 -129 -78 -298 -35
-266 67 -530 205 -712 371 -91 83 -118 99 -138 82 -17 -14 -28 -3 -80 80 -40
63 -63 80 -96 71 -16 -4 -30 2 -49 20 -40 38 -114 51 -257 44 -144 -8 -260
-26 -415 -65 -142 -36 -230 -75 -295 -132 -104 -91 -216 -124 -470 -140 -256
-17 -312 -26 -348 -56 -28 -23 -36 -25 -85 -19 -77 10 -139 29 -282 90 -172
73 -193 78 -265 72 -101 -8 -235 -80 -235 -127 0 -29 -56 -102 -116 -152 -78
-64 -156 -103 -234 -117 -71 -14 -409 -123 -453 -147 -23 -13 -39 -14 -105 -4
-111 16 -228 49 -258 72 -22 18 -24 25 -18 64 8 54 -9 84 -60 108 -80 38 -180
48 -551 55 -198 4 -368 11 -377 15 -12 6 -15 16 -11 39 3 21 -4 56 -21 100
-32 85 -27 98 71 177 74 61 133 146 133 192 0 45 26 98 48 98 54 0 242 130
242 167 0 6 -16 31 -36 55 -52 61 -75 115 -67 161 4 27 2 37 -7 37 -22 0 -50
-31 -50 -55 0 -65 -30 -101 -105 -125 -58 -19 -147 -65 -183 -95 -38 -32 -83
-51 -144 -59 -46 -7 -57 -15 -121 -85 -17 -19 -41 -32 -65 -36 -62 -10 -100
-32 -126 -74 -21 -32 -35 -42 -80 -55 -34 -10 -73 -32 -101 -56 -75 -65 -84
-68 -114 -31 -14 17 -32 31 -38 31 -7 0 -29 -34 -49 -76 -83 -175 -306 -346
-549 -419 -110 -34 -135 -46 -179 -89 -46 -47 -113 -60 -311 -60 -138 -1 -165
2 -188 17 -20 13 -27 26 -27 50 0 17 -7 71 -17 119 -22 115 -16 127 79 171 40
18 114 59 163 91 50 31 140 82 201 112 148 73 166 93 175 191 4 42 13 79 19
83 7 4 34 2 61 -5 60 -16 112 -5 152 33 30 28 33 46 16 103 -15 50 1 91 48
120 27 17 65 24 171 35 244 23 491 82 563 136 79 58 190 82 379 83 l155 0 27
55 c44 91 110 129 192 110 124 -28 181 -170 111 -276 -14 -22 -14 -28 1 -60
36 -75 117 -93 213 -49 29 14 97 57 150 96 110 81 161 109 245 134 171 49 313
157 304 232 -3 27 -4 28 -59 25 -48 -3 -60 0 -86 22 -81 68 -61 156 36 156 41
0 62 21 76 75 16 67 53 94 206 156 134 54 200 89 239 124 29 27 59 35 115 29
22 -2 103 -9 180 -14z m-1525 -600 c33 -33 21 -68 -19 -55 -23 7 -34 31 -26
56 8 24 20 24 45 -1z m-8100 -70 c13 -8 11 -14 -12 -36 -29 -30 -58 -27 -58 5
0 32 41 50 70 31z m8190 -105 c18 -22 5 -59 -36 -94 -40 -36 -54 -33 -54 10 0
70 57 124 90 84z m-5876 -196 c43 -46 80 -123 72 -145 -11 -30 -49 -13 -111
50 -75 74 -89 110 -56 138 28 22 43 15 95 -43z m-3450 -295 c25 -10 19 -42
-14 -66 -17 -12 -29 -26 -27 -31 1 -5 27 -19 57 -31 30 -12 55 -28 55 -34 0
-18 -83 -100 -134 -133 -68 -44 -111 -35 -111 22 0 44 -23 54 -120 51 -127 -4
-136 2 -145 83 -8 77 -1 90 59 106 103 29 338 49 380 33z m1754 -170 c89 -44
158 -146 132 -194 -6 -11 -29 -32 -52 -46 l-40 -26 6 -59 c8 -66 2 -70 -61
-49 -43 16 -79 -2 -139 -65 -45 -49 -56 -55 -91 -55 -71 0 -131 28 -203 96
-75 71 -133 165 -113 185 6 6 76 37 155 68 173 69 255 108 278 131 21 21 51
39 66 40 5 0 33 -12 62 -26z m10960 -624 c46 0 52 -2 52 -20 0 -49 -53 -112
-105 -124 -29 -8 -96 -70 -183 -174 -59 -71 -83 -76 -252 -56 -161 18 -401 61
-414 74 -15 15 19 55 65 77 24 12 88 42 142 67 54 25 118 59 143 76 105 73
186 91 374 85 69 -3 149 -5 178 -5z"/>
<path d="M32672 55654 c-61 -25 -317 -44 -947 -69 -714 -28 -1252 -35 -2575
-33 -1032 2 -1357 -1 -1430 -11 -167 -22 -387 -60 -700 -121 -431 -84 -500
-96 -635 -114 -189 -26 -231 -35 -378 -83 -304 -98 -686 -264 -800 -347 -100
-72 -215 -181 -368 -349 -261 -287 -284 -319 -273 -374 8 -41 -42 -187 -121
-350 -35 -73 -70 -163 -79 -200 -18 -79 -42 -274 -51 -413 -14 -228 -44 -370
-106 -516 -51 -120 -68 -180 -61 -222 3 -22 -1 -39 -12 -51 -30 -33 -36 -82
-51 -372 -14 -271 -33 -467 -56 -568 -6 -25 -28 -91 -50 -145 -22 -55 -39
-113 -39 -130 3 -51 2 -53 -39 -60 -57 -9 -65 -24 -57 -109 11 -107 44 -264
66 -308 24 -46 25 -96 5 -207 -15 -87 -12 -134 11 -153 18 -15 17 -77 -1 -154
-27 -112 -14 -235 31 -296 30 -42 30 -56 -2 -90 l-25 -26 20 -34 c54 -94 136
-709 111 -838 -12 -63 -6 -94 28 -144 23 -35 24 -43 18 -117 -6 -75 -5 -83 23
-137 16 -32 38 -96 49 -143 38 -152 45 -241 37 -455 -5 -110 -9 -607 -10
-1105 l-1 -905 -26 -130 c-29 -144 -41 -237 -63 -494 -16 -183 -38 -342 -55
-385 -17 -46 5 -66 74 -66 l30 0 -30 -31 c-25 -26 -29 -38 -28 -82 1 -29 13
-105 28 -169 25 -114 32 -190 20 -222 -3 -8 -30 -33 -59 -55 -71 -54 -81 -83
-66 -206 14 -120 15 -108 -16 -146 l-28 -33 0 -185 c0 -102 6 -373 14 -601 16
-502 12 -1259 -6 -1282 -17 -19 12 -134 63 -256 47 -114 52 -142 25 -166 -28
-26 -26 -41 9 -67 16 -12 31 -28 34 -34 2 -7 -9 -41 -25 -75 -34 -72 -36 -99
-10 -121 15 -14 19 -37 24 -145 3 -71 15 -187 26 -259 39 -261 44 -384 35
-815 -17 -769 -12 -945 36 -1343 21 -169 29 -194 84 -246 39 -37 44 -61 21
-101 -36 -62 -19 -111 110 -320 67 -109 102 -189 116 -268 13 -70 28 -98 73
-140 58 -54 78 -137 121 -502 52 -440 85 -571 182 -703 52 -71 851 -882 921
-934 79 -59 212 -122 387 -183 202 -70 301 -112 393 -165 61 -35 93 -47 152
-55 99 -14 170 -33 279 -75 161 -63 250 -75 776 -110 451 -30 527 -37 750 -75
182 -31 237 -46 283 -80 20 -15 55 -25 108 -31 171 -21 220 -31 323 -66 89
-31 120 -37 194 -38 73 0 91 -4 98 -18 19 -33 56 -40 261 -53 148 -9 215 -17
235 -28 70 -39 103 -48 187 -56 65 -7 97 -14 118 -30 46 -34 77 -41 203 -50
137 -9 147 -12 160 -43 14 -32 123 -82 208 -96 210 -33 820 -51 1762 -51 700
1 935 9 1045 39 41 11 140 30 220 41 166 24 226 37 256 55 39 25 99 34 309 49
220 16 351 35 424 61 58 20 125 19 164 -2 27 -15 57 -18 177 -17 226 1 460 39
545 88 46 26 62 24 75 -10 12 -31 37 -30 80 1 93 69 350 140 1070 296 524 114
489 110 1210 119 647 8 765 15 905 53 67 18 107 22 252 22 165 0 172 1 196 23
32 30 84 45 285 82 122 23 187 40 244 66 91 41 210 68 408 94 241 31 443 43
645 37 238 -6 295 0 333 36 34 33 61 34 173 6 90 -23 197 -23 489 0 136 11
540 34 905 51 1119 52 1399 126 1990 524 117 79 219 158 261 202 33 34 66 52
118 64 64 14 114 50 216 156 98 102 176 202 280 359 133 202 139 223 175 679
29 368 58 622 82 711 8 33 16 93 16 133 0 61 3 72 18 72 23 0 27 25 39 244 15
267 0 573 -34 676 -26 82 -31 115 -46 294 -7 79 -17 134 -30 164 -29 65 -39
334 -40 1077 -1 460 2 651 14 820 42 576 58 779 73 880 28 195 28 187 -1 214
-31 29 -32 41 -6 108 29 77 56 241 90 558 42 382 67 547 95 630 39 115 58 422
75 1255 13 627 12 1055 -2 1270 -19 280 -16 359 26 565 55 273 57 346 12 690
-35 270 -53 771 -66 1920 -11 1017 -26 1717 -41 1919 -8 116 -15 159 -45 250
-20 61 -64 237 -99 391 -35 154 -75 330 -90 390 -14 61 -50 230 -80 377 -87
423 -159 635 -243 713 -25 23 -27 31 -26 98 2 128 64 245 142 267 94 26 297 3
414 -46 75 -31 106 -30 159 6 24 16 48 30 53 30 6 0 23 -12 38 -27 27 -26 30
-27 56 -13 41 24 119 126 164 217 50 101 55 161 19 243 -17 39 -26 83 -31 151
-11 171 -43 191 -370 239 -202 30 -259 45 -292 81 -20 22 -36 29 -63 29 -48 0
-100 23 -146 65 -45 40 -127 67 -274 90 -232 36 -527 100 -613 134 -97 38
-387 25 -661 -31 -126 -25 -261 -21 -416 12 -245 52 -346 62 -615 61 -388 -1
-1388 -31 -1705 -51 -313 -20 -822 -30 -1720 -36 -917 -6 -1035 -3 -1215 30
-47 8 -197 25 -333 36 -273 23 -382 40 -422 66 -25 16 -28 16 -58 0 -18 -9
-47 -28 -66 -41 -37 -28 -74 -31 -162 -15 -74 13 -261 27 -524 40 -308 15
-546 37 -715 66 -89 15 -239 30 -390 39 -305 19 -408 29 -585 60 -643 113
-827 135 -1395 165 -469 25 -649 37 -819 56 -154 16 -203 28 -222 50 -12 14
-30 16 -135 10 -100 -6 -128 -5 -152 8 -16 8 -32 22 -35 29 -10 25 -60 36 -95
21z m-997 -1054 c225 -10 620 -22 1285 -40 526 -14 733 -27 895 -55 370 -64
790 -120 1059 -140 110 -9 299 -26 420 -40 268 -29 514 -51 741 -65 94 -6 253
-17 355 -25 102 -8 255 -17 340 -20 157 -7 1091 17 1405 36 398 23 504 23 585
1 109 -30 165 -40 359 -62 96 -11 211 -29 257 -40 128 -31 425 -42 793 -30
479 16 771 43 968 90 75 19 97 20 172 11 47 -5 268 -13 490 -16 454 -7 544
-14 606 -51 30 -17 57 -24 95 -24 47 0 56 4 86 36 38 40 44 38 92 -17 46 -53
81 -65 147 -50 45 10 65 10 114 -3 124 -32 349 -50 886 -71 568 -22 769 -41
892 -85 68 -24 127 -61 148 -94 25 -37 72 -243 100 -436 32 -219 60 -341 88
-379 12 -16 53 -65 90 -108 74 -84 129 -174 146 -238 6 -22 22 -118 36 -213
14 -95 37 -216 52 -270 48 -183 53 -228 63 -562 14 -494 44 -848 110 -1321 46
-328 62 -545 58 -795 -3 -209 -4 -221 -27 -264 -22 -41 -25 -61 -32 -246 -4
-110 -13 -247 -18 -305 -47 -469 -61 -1629 -21 -1782 20 -76 4 -110 -108 -233
-113 -124 -176 -203 -204 -259 -62 -119 -64 -586 -4 -790 8 -27 29 -90 47
-140 25 -71 30 -99 26 -140 -5 -53 3 -79 35 -105 19 -15 38 -75 31 -97 -9 -26
-32 -11 -89 56 -32 39 -62 70 -65 70 -3 1 -1 -34 3 -76 5 -43 8 -119 6 -170
-3 -78 -6 -95 -25 -115 -55 -58 -73 -285 -34 -413 28 -90 27 -104 -15 -166
-86 -129 -89 -148 -88 -744 1 -399 4 -496 18 -573 10 -60 16 -148 16 -256 0
-176 -10 -258 -36 -283 -12 -13 -15 -27 -10 -62 4 -25 9 -78 13 -117 5 -69 5
-71 -28 -108 -31 -36 -32 -40 -20 -69 48 -118 57 -203 71 -623 14 -421 25
-562 52 -627 31 -76 31 -245 0 -286 -27 -37 -42 -128 -42 -256 0 -150 -18
-372 -36 -440 -41 -160 -44 -182 -44 -350 0 -249 -7 -319 -36 -350 -13 -15
-24 -35 -24 -46 0 -34 -20 -60 -56 -75 -21 -9 -39 -26 -45 -42 -6 -15 -15
-124 -19 -242 -5 -118 -16 -271 -25 -340 -21 -154 -16 -217 23 -295 17 -33 53
-145 81 -250 28 -104 58 -206 65 -225 16 -40 32 -192 42 -385 8 -175 28 -292
54 -328 39 -52 -6 -124 -93 -145 -24 -6 -79 -35 -123 -63 -103 -68 -158 -92
-192 -84 -25 5 -67 -4 -294 -66 l-87 -23 -83 42 c-156 79 -719 201 -1013 218
-172 10 -323 -37 -426 -133 -51 -48 -52 -48 -123 -49 -54 0 -93 -8 -161 -33
-213 -77 -198 -75 -450 -75 -340 0 -596 25 -728 71 -64 22 -77 23 -131 14 -92
-16 -157 -20 -441 -31 -338 -13 -574 -38 -935 -100 -375 -63 -678 -106 -850
-120 -74 -6 -283 -24 -465 -40 -181 -16 -438 -36 -570 -45 -265 -17 -446 -37
-557 -61 -40 -9 -115 -17 -165 -19 -92 -2 -93 -3 -146 -44 -61 -46 -70 -48
-118 -24 -28 15 -71 18 -257 21 -330 6 -668 -18 -832 -58 -114 -28 -183 -39
-315 -49 -108 -8 -127 -12 -177 -40 -40 -23 -97 -40 -199 -62 -79 -17 -170
-42 -202 -55 -33 -14 -107 -31 -170 -40 -65 -9 -137 -26 -171 -41 -41 -17
-100 -29 -185 -39 -183 -21 -349 -49 -579 -100 -207 -45 -289 -53 -310 -32
-14 14 -634 47 -938 50 -169 1 -205 -1 -234 -15 -43 -22 -58 -21 -115 4 -58
26 -146 22 -275 -12 -79 -20 -110 -22 -445 -25 -198 -1 -484 -7 -635 -13 -345
-14 -713 -14 -851 -1 -111 11 -153 21 -256 64 -87 37 -212 61 -475 91 -279 31
-392 51 -646 114 -181 45 -255 59 -384 76 -34 4 -55 14 -75 35 -31 33 -55 44
-133 60 -66 13 -205 67 -324 127 -152 76 -297 131 -390 147 -49 8 -100 23
-114 33 -48 35 -67 42 -122 48 -123 13 -140 17 -184 46 -34 23 -65 33 -117 40
-82 10 -91 15 -119 74 -16 34 -40 56 -106 100 -47 32 -102 78 -122 104 -76 94
-117 129 -163 141 -80 20 -203 127 -226 195 -9 29 -27 44 -115 95 -58 34 -309
284 -341 340 -36 63 -54 143 -66 299 -6 74 -20 198 -31 275 -30 204 -134 715
-169 829 -22 69 -34 135 -41 224 -21 260 -7 694 25 770 17 41 13 53 -21 53
-30 0 -30 13 0 53 33 45 46 90 46 159 0 53 -2 59 -25 68 -24 9 -24 10 -22 127
2 97 -2 129 -19 183 -41 123 -70 354 -95 760 -15 241 -7 341 33 440 37 90 46
188 29 311 -7 46 -16 212 -21 369 -9 284 -19 396 -45 500 -13 52 -27 156 -40
295 -3 33 -10 197 -15 365 -10 299 -15 353 -41 416 -12 29 -10 34 15 65 26 31
27 36 21 100 -6 61 -5 71 15 96 20 25 21 36 18 193 l-3 166 49 100 c42 83 50
109 51 159 1 33 16 114 33 180 93 359 167 838 179 1155 6 157 5 170 -20 255
-32 113 -43 188 -57 390 -25 380 -38 454 -95 536 -19 28 -37 66 -41 86 -16 84
9 255 80 568 65 285 51 602 -37 833 -19 48 -39 109 -46 136 -7 27 -21 67 -32
89 -17 32 -20 51 -15 91 7 50 -11 234 -39 411 -75 478 -40 1413 70 1848 31
122 41 141 116 224 33 37 69 84 80 106 24 47 38 162 33 265 -2 43 -11 201 -20
353 l-15 276 78 74 c185 174 241 236 271 300 30 64 39 98 87 329 32 156 80
258 165 353 73 83 132 160 155 206 16 32 18 33 61 26 53 -8 108 14 183 73 28
22 110 71 183 108 156 78 237 129 333 209 96 80 139 97 255 103 111 5 429 -13
481 -28 19 -5 46 -21 59 -35 28 -30 41 -31 64 -7 9 11 33 24 54 30 110 33 221
36 1567 37 1328 2 1536 6 1611 36 73 29 292 35 659 19z"/>
<path d="M49887 51363 c-18 -17 -6 -51 22 -63 57 -23 95 15 53 53 -19 17 -63
23 -75 10z"/>
<path d="M50009 49604 c-14 -18 -5 -40 25 -58 25 -16 60 27 46 55 -13 23 -53
25 -71 3z"/>
<path d="M62827 30843 c-120 -144 -140 -208 -96 -295 12 -23 84 -105 160 -184
77 -79 144 -155 149 -169 11 -29 5 -47 -46 -149 -40 -80 -43 -129 -14 -186 26
-52 25 -67 -10 -119 -59 -86 -66 -199 -17 -245 34 -31 63 -126 126 -415 84
-376 112 -449 226 -581 245 -282 274 -327 282 -440 4 -52 15 -86 54 -166 55
-111 109 -304 109 -385 0 -190 127 -446 253 -511 33 -16 52 -19 96 -15 63 7
91 30 112 95 18 54 23 737 10 1317 -19 820 -25 856 -213 1227 -125 248 -168
315 -212 333 -29 12 -36 21 -44 62 -7 31 -19 53 -33 63 -62 41 -63 44 -64 121
0 65 -4 81 -34 134 -124 219 -502 531 -697 575 -35 8 -36 7 -97 -67z"/>
<path d="M60990 28967 c-41 -14 -70 -63 -70 -118 0 -47 -25 -130 -61 -201 -64
-126 -105 -336 -80 -409 6 -20 30 -54 52 -77 47 -50 89 -133 89 -180 0 -47 23
-95 56 -120 l29 -21 -32 -59 c-43 -78 -67 -213 -60 -342 6 -112 11 -130 43
-130 29 0 37 -15 78 -143 18 -56 51 -133 74 -171 23 -38 58 -119 77 -180 36
-112 83 -199 155 -291 52 -66 69 -118 80 -245 10 -121 34 -194 88 -265 50 -65
98 -102 153 -116 44 -12 50 -11 122 23 162 77 347 228 347 282 0 23 4 26 38
26 68 0 176 90 216 181 8 19 25 85 36 147 26 140 87 354 127 447 18 40 34 98
38 135 7 69 26 110 50 110 26 0 17 31 -24 85 -36 48 -92 142 -220 373 -25 46
-62 100 -82 120 -46 47 -105 139 -204 320 -82 149 -133 217 -188 250 -18 11
-76 34 -129 52 -76 24 -98 35 -98 49 0 10 -35 50 -78 88 -76 69 -105 110 -117
166 -26 127 -354 266 -505 214z"/>
<path d="M63745 24390 c-86 -10 -202 -49 -248 -84 -63 -48 -82 -95 -81 -196 1
-141 54 -355 99 -404 16 -17 25 -39 25 -60 0 -58 38 -184 86 -284 31 -66 48
-115 51 -153 3 -30 11 -63 18 -72 7 -10 43 -34 80 -55 92 -50 105 -76 105
-203 l0 -97 39 -49 c50 -62 111 -120 236 -223 124 -103 175 -150 244 -226 52
-57 69 -86 105 -186 15 -42 24 -50 71 -72 30 -13 75 -39 100 -56 193 -133 528
-205 657 -142 69 34 132 110 191 231 72 148 71 154 -32 372 -46 96 -94 203
-107 238 -13 35 -32 73 -42 85 -10 12 -41 46 -68 78 -51 57 -121 180 -144 253
-21 67 -110 232 -168 313 -106 147 -159 227 -167 252 -10 34 -49 89 -135 190
-161 191 -180 214 -194 245 -13 26 -23 34 -54 39 -43 6 -64 25 -86 77 -29 69
-75 91 -301 147 -196 49 -205 50 -280 42z"/>
<path d="M62108 24265 c-55 -18 -96 -64 -105 -119 -6 -37 -34 -66 -63 -66 -35
0 -107 -101 -150 -209 -52 -134 -48 -191 31 -386 66 -164 88 -256 99 -420 10
-151 16 -182 36 -205 59 -69 131 -316 235 -810 27 -124 68 -212 123 -264 42
-39 53 -63 71 -149 6 -28 23 -48 69 -80 17 -11 47 -61 81 -132 60 -124 89
-165 146 -201 47 -29 64 -62 72 -134 8 -77 101 -259 172 -337 38 -43 62 -80
79 -128 26 -72 58 -113 120 -152 21 -14 59 -43 83 -66 39 -36 51 -42 87 -40
147 6 388 187 480 362 45 86 53 141 30 206 -29 86 -33 122 -44 395 -11 294
-26 408 -70 515 -40 101 -54 179 -42 233 12 52 0 98 -28 107 -35 11 -69 63
-76 115 -5 36 -14 55 -35 74 -39 35 -52 63 -115 253 -31 93 -76 206 -101 253
-95 177 -115 221 -123 282 -8 54 -14 66 -49 97 -24 22 -49 58 -62 91 -30 75
-120 210 -159 239 -39 28 -78 112 -109 231 -13 49 -36 106 -55 135 -48 73
-136 159 -198 191 -36 20 -59 40 -70 64 -11 21 -31 41 -50 49 -49 21 -251 25
-310 6z"/>
<path d="M50780 25943 c-451 -19 -1089 -110 -1291 -184 -166 -61 -397 -104
-879 -164 -314 -39 -476 -67 -560 -96 -89 -30 -241 -58 -465 -85 -462 -55
-577 -76 -694 -128 -93 -41 -148 -54 -462 -105 -136 -22 -323 -58 -415 -80
-258 -61 -418 -81 -1014 -126 -376 -29 -490 -43 -670 -86 -69 -16 -173 -41
-231 -54 -121 -28 -528 -74 -967 -110 -227 -19 -362 -38 -423 -60 -52 -18
-228 -39 -459 -54 -522 -34 -639 -43 -777 -57 -83 -8 -217 -19 -298 -23 -100
-5 -149 -12 -155 -21 -25 -41 -531 -61 -624 -24 -11 4 -44 22 -73 40 -82 49
-200 88 -498 165 -321 83 -403 98 -555 106 -133 7 -157 13 -162 45 -2 19 -10
24 -44 26 -33 2 -48 -2 -73 -24 -37 -31 -72 -33 -137 -10 -75 26 -183 36 -669
62 -832 45 -1176 43 -1890 -6 -227 -16 -388 -20 -850 -20 -769 0 -1248 -19
-1279 -50 -16 -16 -96 -11 -164 10 -121 38 -376 59 -972 81 -168 6 -389 16
-493 23 -185 13 -252 10 -300 -15 -79 -41 -331 -279 -359 -339 -15 -33 -15
-39 9 -115 39 -124 43 -132 94 -202 28 -37 51 -81 55 -102 11 -67 26 -101 51
-119 62 -42 75 -61 68 -98 -4 -26 0 -47 15 -79 21 -43 82 -95 112 -95 9 0 38
18 64 41 27 22 72 51 99 63 51 24 99 73 165 171 74 109 183 245 203 252 12 4
157 8 322 8 275 0 303 2 335 19 30 16 49 18 150 13 134 -6 299 -38 385 -74
102 -42 198 -71 291 -87 106 -19 215 -21 232 -4 7 7 67 14 154 18 97 4 151 10
168 20 19 12 81 16 270 20 330 7 1008 -5 1205 -22 183 -15 323 -16 618 -3 163
6 216 5 247 -5 35 -12 49 -11 119 8 105 29 120 28 180 -13 56 -39 104 -54 115
-36 11 17 147 13 291 -9 113 -18 204 -39 410 -96 243 -68 1725 -183 2365 -184
311 -1 604 -16 639 -35 66 -34 308 -18 852 54 162 22 350 45 419 51 192 16
252 27 316 57 57 26 65 27 254 29 206 2 255 7 470 54 74 16 187 36 250 45 189
26 228 35 278 60 26 14 98 36 160 50 122 27 189 52 211 79 13 16 15 15 25 -15
13 -40 50 -51 141 -44 33 3 137 12 230 20 94 8 247 20 340 25 94 6 289 24 435
40 146 16 319 34 386 40 82 6 152 19 218 40 96 29 185 44 446 75 291 35 944
151 993 176 25 14 83 31 248 72 181 46 239 72 239 104 0 24 2 25 38 17 58 -13
103 -8 148 15 58 30 158 40 404 41 249 0 342 11 385 42 20 15 43 22 70 21 182
-6 156 -11 309 65 139 70 185 86 321 117 51 11 78 23 101 46 22 21 45 32 75
36 57 7 87 23 127 67 65 72 140 91 357 91 153 0 164 -2 251 -32 50 -17 144
-57 210 -88 65 -32 142 -63 171 -70 32 -8 70 -27 97 -50 87 -71 255 -273 297
-358 27 -54 84 -113 131 -138 55 -28 107 -77 145 -136 71 -111 97 -221 80
-338 -13 -99 -5 -130 59 -225 101 -148 233 -422 249 -515 13 -81 38 -137 92
-213 73 -100 108 -177 129 -282 23 -118 15 -296 -21 -450 -43 -184 -55 -265
-65 -430 -12 -190 -29 -255 -83 -316 -49 -56 -84 -74 -222 -113 -60 -18 -140
-46 -178 -62 -49 -22 -102 -35 -185 -46 -182 -23 -220 -32 -252 -60 l-30 -25
-9 24 c-16 42 -38 51 -144 59 -150 13 -354 55 -505 106 -114 38 -143 44 -199
41 l-66 -3 -32 45 -32 45 -94 1 c-72 1 -160 15 -374 59 -319 66 -399 72 -480
37 -94 -41 -173 -53 -370 -59 -211 -6 -294 3 -408 43 -100 35 -219 44 -542 42
-248 -2 -285 0 -325 16 -30 12 -93 21 -191 27 -99 6 -177 17 -245 34 -163 43
-185 46 -235 29 -98 -34 -658 -36 -868 -3 -107 16 -319 16 -516 0 -154 -13
-175 -12 -227 3 -74 21 -155 20 -427 -5 -308 -29 -517 -30 -636 -2 -93 23
-205 35 -457 53 -80 5 -206 19 -280 30 -171 26 -190 25 -256 -6 -54 -25 -59
-26 -179 -19 -97 6 -127 4 -140 -6 -20 -17 -172 -16 -318 1 -84 10 -197 12
-400 7 -31 -1 -46 5 -66 25 -31 31 -44 34 -249 48 -172 13 -284 31 -328 54
-96 50 -401 95 -782 116 -215 12 -291 24 -342 53 l-38 21 -22 -22 c-34 -31
-97 -41 -260 -42 -221 0 -401 17 -679 65 -90 16 -98 16 -135 -1 -34 -16 -83
-19 -400 -23 -326 -5 -364 -8 -381 -23 -17 -15 -40 -18 -154 -18 -74 0 -177
-7 -229 -15 -178 -28 -345 -44 -590 -59 -305 -19 -434 -37 -626 -86 -164 -42
-278 -64 -423 -80 -166 -19 -228 -37 -277 -82 -56 -51 -117 -74 -242 -88 -124
-15 -337 -1 -572 36 -229 37 -646 48 -1245 35 -713 -17 -1040 -48 -1133 -107
-78 -50 -688 -101 -1097 -92 -182 4 -192 5 -235 30 -25 14 -67 28 -94 32 -83
10 -191 87 -248 175 -53 83 -29 201 62 305 28 32 54 74 60 96 7 27 19 43 38
52 79 38 268 558 297 818 7 65 17 85 39 77 13 -5 16 1 16 34 0 55 -51 109
-102 109 -41 0 -76 23 -80 53 -8 58 -124 8 -201 -86 -46 -56 -60 -85 -66 -132
-6 -39 -9 -41 -89 -81 -98 -47 -137 -81 -145 -124 -5 -24 -16 -35 -49 -49 -52
-23 -90 -63 -194 -201 -43 -58 -100 -128 -126 -156 -56 -60 -78 -107 -78 -168
0 -54 -14 -93 -44 -126 -38 -41 -48 -91 -55 -288 -8 -211 -11 -220 -99 -355
-28 -43 -54 -95 -58 -115 -9 -49 -24 -78 -73 -137 -52 -63 -53 -92 -5 -188
106 -210 189 -275 401 -312 136 -24 502 -37 886 -32 306 4 378 8 549 30 296
40 541 59 753 61 166 1 194 -1 218 -16 34 -23 52 -23 85 2 36 27 111 37 312
45 203 7 386 22 505 41 136 21 273 19 337 -7 61 -24 92 -20 145 15 39 27 53
26 53 -4 0 -33 19 -32 88 1 l67 33 380 7 c418 7 466 12 665 74 163 50 249 59
417 46 129 -10 392 -3 563 15 134 13 278 37 309 50 50 21 195 41 545 74 171
17 403 42 516 56 187 24 226 26 450 21 135 -3 346 -16 470 -27 195 -19 334
-23 1055 -32 1148 -15 1164 -15 1270 5 128 24 291 35 670 47 637 19 1150 9
1258 -24 63 -20 332 -40 427 -31 41 3 91 13 110 22 29 13 60 15 199 9 169 -7
359 -28 421 -46 19 -6 213 -15 435 -20 316 -7 427 -13 530 -29 211 -32 375
-42 845 -52 332 -6 462 -12 510 -24 36 -8 144 -19 240 -25 96 -6 326 -22 510
-36 401 -32 975 -39 1115 -15 70 12 98 11 225 -3 184 -21 352 -50 488 -82 117
-28 129 -34 247 -104 116 -69 162 -81 360 -88 250 -10 2344 5 2477 17 211 20
290 54 303 133 5 28 17 50 36 67 35 31 36 51 7 151 -20 70 -22 99 -23 440 -1
201 -5 385 -9 410 -5 25 -19 67 -33 94 -37 73 -44 136 -27 272 18 156 18 261
-1 314 -9 25 -14 69 -13 104 2 53 -2 71 -34 136 -48 97 -80 230 -123 520 -98
648 -187 1062 -246 1137 -16 20 -29 46 -29 59 0 70 -69 157 -235 294 -140 116
-286 261 -407 405 -124 148 -208 220 -328 280 -191 97 -460 135 -840 118z"/>
<path d="M24809 24406 c-30 -15 -68 -137 -76 -246 -5 -68 -3 -77 16 -94 24
-22 26 -36 9 -83 -17 -47 7 -89 136 -247 138 -166 158 -201 165 -285 l6 -66
56 -27 c82 -40 148 -118 214 -251 58 -118 85 -204 85 -272 0 -57 -58 -142
-173 -251 -108 -104 -214 -179 -324 -232 -72 -34 -85 -37 -168 -38 -74 0 -101
-5 -154 -27 -94 -40 -147 -73 -177 -113 -33 -42 -73 -64 -207 -110 -56 -20
-118 -45 -137 -56 -50 -29 -105 -19 -241 42 -63 28 -141 58 -174 67 -85 22
-108 35 -185 113 -38 38 -88 79 -110 90 -59 30 -205 60 -287 58 -55 -1 -81 4
-126 25 -69 31 -142 98 -157 142 -23 70 23 151 122 215 76 50 153 75 306 100
128 22 204 46 256 83 99 69 200 176 241 257 10 19 24 64 32 101 7 36 35 123
62 191 27 69 57 149 65 179 21 69 20 190 -2 254 -21 63 -48 73 -182 75 -87 1
-129 5 -289 26 -46 6 -56 4 -67 -11 -8 -11 -14 -29 -14 -41 0 -14 -22 -41 -65
-78 -41 -37 -76 -79 -96 -117 -39 -72 -79 -110 -188 -175 -114 -67 -160 -109
-186 -169 -14 -31 -60 -91 -119 -155 -53 -58 -108 -128 -122 -157 -33 -67 -41
-73 -109 -80 -77 -8 -109 -33 -180 -138 -38 -56 -77 -101 -103 -118 -45 -30
-75 -78 -99 -161 -21 -72 -50 -124 -71 -130 -21 -7 -40 -46 -72 -151 -12 -38
-30 -84 -41 -101 -27 -44 -24 -66 17 -115 42 -50 64 -91 64 -117 0 -23 30 -52
55 -52 31 0 98 -37 156 -86 61 -53 120 -83 162 -84 36 0 82 -24 131 -67 42
-39 54 -39 139 -6 48 18 48 18 65 -4 21 -27 92 -47 257 -72 158 -25 231 -46
244 -70 8 -15 27 -19 93 -24 51 -3 110 -15 153 -30 115 -42 155 -49 259 -48
93 0 101 -1 122 -24 42 -46 130 -29 214 40 81 66 178 95 199 58 12 -22 99 -23
416 -7 197 11 214 13 261 38 49 26 56 26 213 25 173 -1 184 2 196 49 16 66
126 165 204 184 38 9 63 28 147 112 79 80 108 116 134 171 27 56 57 94 156
196 84 86 130 140 143 172 14 32 29 51 47 57 28 11 28 7 5 95 -14 56 -29 271
-36 535 -7 263 -12 278 -116 396 -61 69 -104 142 -129 222 -23 73 -92 125
-311 236 -208 106 -275 148 -285 178 -3 10 -15 28 -27 40 -32 30 -156 86 -233
104 -37 8 -81 25 -98 38 -43 32 -59 36 -87 22z"/>
<path d="M18038 24194 c-127 -23 -186 -50 -248 -113 -59 -60 -128 -101 -253
-150 -116 -46 -195 -88 -207 -111 -6 -10 -28 -24 -49 -30 -49 -13 -146 -87
-243 -187 -111 -114 -128 -142 -128 -218 0 -67 -17 -95 -58 -95 -30 0 -52 -38
-62 -110 -11 -78 -38 -114 -132 -176 -87 -56 -128 -93 -128 -112 0 -8 10 -30
21 -49 23 -37 19 -49 -21 -55 -41 -5 -50 -40 -50 -188 0 -323 65 -717 142
-863 47 -88 204 -212 385 -304 126 -65 163 -76 245 -77 63 -1 70 -3 105 -37
21 -20 47 -41 58 -47 36 -18 165 -31 405 -42 342 -15 428 -26 548 -66 62 -21
102 -26 270 -34 167 -8 205 -12 252 -31 102 -41 402 -37 551 7 38 11 65 28 90
55 25 28 48 41 83 49 56 12 106 45 200 130 77 70 150 118 216 144 60 24 70 33
70 67 0 23 9 35 41 56 70 46 189 238 189 305 0 30 -24 48 -63 48 -48 0 -62 32
-67 154 -5 114 -11 136 -35 136 -18 0 -35 31 -35 62 0 52 -20 98 -46 104 -33
8 -50 40 -33 61 13 15 44 14 119 -4 l25 -6 -29 31 -29 31 27 31 c31 37 31 37
10 100 -12 38 -15 75 -10 172 2 67 8 142 11 165 14 87 -58 290 -149 417 -88
123 -190 200 -282 213 -37 5 -55 15 -89 50 -25 25 -71 56 -112 74 -49 23 -85
49 -129 94 -54 56 -66 64 -110 70 -58 8 -94 23 -94 41 0 19 -41 44 -72 44 -39
0 -112 29 -192 78 -68 41 -72 42 -156 42 -100 0 -150 13 -150 40 0 17 -11 18
-122 17 -93 0 -134 4 -167 16 -54 21 -201 21 -313 1z"/>
<path d="M22820 19314 c-41 -2 -212 -8 -380 -14 -710 -25 -1203 -65 -1655
-135 -377 -59 -495 -68 -805 -62 -178 4 -339 13 -455 26 -407 46 -813 67
-1635 83 -625 12 -1334 2 -1605 -23 -134 -12 -246 -44 -380 -109 -44 -22 -92
-40 -105 -40 -32 0 -89 -27 -164 -75 -73 -47 -171 -91 -306 -140 -160 -57
-275 -111 -380 -175 -53 -33 -149 -84 -215 -115 -386 -181 -478 -238 -627
-385 -158 -156 -182 -232 -182 -590 0 -204 2 -238 26 -365 41 -209 59 -531 73
-1235 10 -525 27 -708 85 -895 53 -172 58 -289 20 -460 -21 -92 -41 -351 -40
-527 0 -218 4 -258 37 -314 29 -51 67 -217 87 -380 9 -75 25 -146 40 -185 30
-77 49 -178 76 -407 37 -322 56 -368 182 -457 47 -33 108 -77 135 -97 55 -43
127 -73 228 -96 102 -22 380 -20 645 6 118 12 256 24 305 27 50 3 254 17 455
30 615 42 1319 72 2230 96 457 12 682 5 825 -25 123 -26 356 -48 447 -43 65 3
95 10 121 26 45 27 57 27 120 -8 104 -58 344 -108 656 -136 371 -34 494 -48
661 -76 215 -35 392 -53 755 -76 313 -20 408 -21 428 -5 48 40 471 14 966 -58
314 -46 398 -64 496 -103 50 -20 119 -41 155 -47 103 -18 712 -23 1235 -11
499 11 671 21 815 47 194 34 278 80 416 228 298 317 429 643 451 1115 11 244
-21 447 -96 607 -63 134 -101 296 -131 559 -6 55 -22 143 -36 195 -47 177 -63
573 -42 1015 17 372 16 459 -7 531 -17 54 -17 63 0 208 34 297 33 311 -31 529
-19 66 -34 139 -34 163 0 38 4 45 29 58 27 14 41 34 41 58 0 7 -17 9 -44 6
-59 -7 -76 4 -76 51 0 28 7 44 30 66 17 16 30 37 30 47 0 10 -20 58 -44 107
-89 177 -164 460 -151 570 4 29 20 97 36 150 34 114 37 177 9 228 -25 48 -25
95 1 246 27 153 19 211 -48 340 -79 153 -151 204 -403 286 -277 90 -326 95
-770 88 -374 -7 -546 1 -667 32 -154 39 -251 44 -1018 46 -407 1 -774 1 -815
-1z m-2392 -1099 c34 -29 73 -45 108 -45 42 0 102 -38 135 -86 l32 -46 26 48
c33 61 64 78 123 65 56 -12 268 -28 538 -41 382 -18 538 -39 605 -80 43 -27
65 -25 170 11 154 54 364 52 378 -3 6 -22 2 -22 117 3 62 13 392 7 670 -12
104 -7 278 -9 471 -5 290 6 308 5 330 -13 39 -31 95 -41 270 -51 224 -13 290
-28 356 -84 20 -16 30 -33 26 -42 -3 -9 29 -50 93 -117 l99 -102 -48 -3 c-46
-3 -48 -5 -45 -30 2 -20 11 -29 33 -36 66 -19 85 -35 232 -183 l152 -154 -6
-352 c-4 -249 -2 -381 7 -452 24 -197 24 -201 -4 -249 -32 -54 -33 -89 -4
-152 17 -38 22 -70 23 -144 1 -89 4 -103 48 -212 26 -64 47 -126 47 -138 0
-12 -15 -35 -35 -53 -40 -35 -44 -52 -14 -69 44 -27 68 -104 89 -283 18 -160
65 -306 159 -493 64 -127 81 -198 92 -372 9 -166 13 -191 38 -230 23 -35 22
-374 -2 -480 -32 -142 -130 -302 -267 -437 -86 -85 -158 -121 -261 -133 -84
-10 -131 -22 -177 -46 -35 -18 -48 -18 -119 5 -84 27 -173 39 -378 51 -240 13
-350 27 -407 51 -26 10 -60 19 -77 19 -46 0 -80 17 -91 46 -10 25 -12 26 -78
20 -54 -6 -73 -3 -99 11 -17 10 -49 28 -70 40 -53 29 -131 48 -298 73 -144 21
-188 31 -310 74 -58 20 -314 66 -595 107 -30 4 -165 15 -300 23 -382 24 -389
25 -420 41 -58 30 -49 53 28 71 l47 11 -50 23 c-38 18 -69 24 -130 25 -73 1
-87 5 -162 44 -93 47 -186 71 -287 71 -54 0 -82 6 -125 26 -55 26 -63 27 -336
36 -154 5 -307 14 -340 20 -99 19 -152 15 -229 -21 -76 -34 -97 -34 -115 5
-16 35 -96 70 -211 90 -116 21 -400 23 -844 5 -326 -13 -431 -23 -457 -47 -9
-8 -43 -19 -75 -24 -258 -42 -338 -58 -535 -106 -207 -51 -237 -56 -394 -64
-209 -11 -319 -36 -586 -134 -174 -63 -367 -89 -759 -101 -210 -6 -410 6 -464
29 -73 30 -207 178 -227 250 -5 18 -27 61 -49 97 -106 169 -116 215 -135 685
-16 391 -33 579 -71 793 -35 201 -34 254 8 339 30 61 33 75 32 152 -1 70 -6
100 -33 170 -17 47 -38 114 -46 150 -23 108 -38 314 -33 448 5 116 8 132 34
182 28 52 29 59 28 185 -1 132 -18 250 -54 375 -34 116 -52 240 -48 326 4 95
17 118 78 128 25 4 63 24 105 56 119 90 144 96 425 105 242 8 317 18 380 51
44 23 68 27 207 36 218 14 731 4 918 -17 182 -21 257 -15 343 25 166 77 596
109 1932 140 549 14 610 20 610 66 0 19 31 25 70 14 55 -16 77 -12 112 20 18
16 36 30 40 30 3 0 20 -11 36 -25z"/>
<path d="M51933 11318 c-4 -7 -12 -22 -18 -33 -5 -11 -33 -31 -61 -45 -81 -40
-87 -47 -81 -102 5 -35 2 -52 -9 -63 -20 -19 -30 -19 -83 5 -51 24 -89 26 -97
6 -16 -43 80 -150 161 -182 92 -35 125 6 106 131 -16 111 -16 112 41 46 105
-125 176 -133 194 -23 8 50 28 59 98 44 60 -12 95 -5 108 24 27 59 -52 141
-175 179 -84 27 -171 33 -184 13z"/>
<path d="M56970 11314 c-19 -8 -46 -26 -60 -39 -14 -13 -52 -39 -85 -57 -47
-26 -65 -43 -82 -78 -46 -90 -21 -144 87 -185 40 -15 92 -30 117 -33 l44 -5
-7 40 c-6 38 -5 40 23 46 66 13 203 160 203 217 0 84 -138 138 -240 94z"/>
<path d="M49137 11283 c-4 -3 -7 -23 -7 -43 0 -45 19 -66 42 -47 26 20 28 44
7 71 -21 27 -31 31 -42 19z"/>
<path d="M56591 10904 c-48 -55 -53 -89 -16 -106 55 -25 99 26 93 106 -4 57
-26 57 -77 0z"/>
</g>
</svg>
